<svg width="251" height="70" viewBox="0 0 251 70" fill="none" xmlns="http://www.w3.org/2000/svg">
<g id="Group 32">
<g id="Group">
<path id="Vector" d="M69.011 40.4713V43.9587H55.4238V24.2034H68.8042V27.6908H60.077V32.1389H68.3492V35.5846H60.077V40.4713H69.011Z" fill="white"/>
<path id="Vector_2" d="M71.7197 24.2034H76.8692L83.1561 35.4802C83.5904 36.3155 84.0867 37.3179 84.3349 38.0488H84.3969C84.3969 37.2762 84.3762 36.4617 84.3762 35.522V24.2243H88.6364V43.9796H83.6731L77.1794 32.5984C76.6624 31.6795 76.2901 30.9068 76.0213 30.1759H75.9592C75.9592 30.9904 75.9799 31.8257 75.9799 32.7863V43.9587H71.7197V24.2034Z" fill="white"/>
<path id="Vector_3" d="M103.734 39.3436H96.5161L95.0271 43.9587H90.374L97.4881 24.2034H102.803L109.917 43.9587H105.243L103.754 39.3436H103.734ZM102.658 36.0441L100.859 30.5309C100.59 29.6747 100.342 28.7559 100.135 27.7535H100.073C99.9078 28.7559 99.6389 29.6747 99.3494 30.5309L97.5502 36.0441H102.617H102.658Z" fill="white"/>
<path id="Vector_4" d="M127.433 38.4039C127.433 41.5154 125.261 43.9587 120.794 43.9587H111.612V24.2034H120.422C124.889 24.2034 126.916 26.3961 126.916 29.2988C126.916 31.3663 125.675 33.0578 123.38 33.6634C125.923 34.0602 127.392 35.7726 127.392 38.383L127.433 38.4039ZM116.265 27.5238V32.3269H119.181C121.27 32.3269 122.077 31.241 122.077 29.9044C122.077 28.5679 121.187 27.5029 119.181 27.5029H116.265V27.5238ZM122.573 38.0071C122.573 36.4826 121.56 35.4385 119.595 35.4385H116.265V40.6383H119.492C121.622 40.6383 122.573 39.4898 122.573 37.9862V38.0071Z" fill="white"/>
<path id="Vector_5" d="M129.688 24.2034H134.341V40.1371H142.282V43.9587H129.688V24.2034Z" fill="white"/>
<path id="Vector_6" d="M157.855 40.4713V43.9587H144.268V24.2034H157.648V27.6908H148.921V32.1389H157.193V35.5846H148.921V40.4713H157.855Z" fill="white"/>
<path id="Vector_7" d="M178.39 39.3436H171.172L169.683 43.9587H165.03L172.144 24.2034H177.459L184.573 43.9587H179.9L178.411 39.3436H178.39ZM177.315 36.0441L175.515 30.5309C175.246 29.6747 174.998 28.7559 174.791 27.7535H174.729C174.564 28.7559 174.295 29.6747 174.006 30.5309L172.206 36.0441H177.273H177.315Z" fill="white"/>
<path id="Vector_8" d="M189.744 24.2034V36.8585C189.744 39.1765 191.088 40.6175 193.384 40.6175C195.679 40.6175 197.023 39.1765 197.023 36.8585V24.2034H201.677V37.0465C201.677 41.5572 198.595 44.4182 193.384 44.4182C188.172 44.4182 185.091 41.5572 185.091 37.0465V24.2034H189.744Z" fill="white"/>
<path id="Vector_9" d="M218.966 27.9414H213.258V43.9587H208.625V27.9414H202.959V24.2034H218.966V27.9414Z" fill="white"/>
<path id="Vector_10" d="M218.222 34.0811C218.222 27.7118 222.006 23.7231 227.859 23.7231C233.711 23.7231 237.496 27.6909 237.496 34.0811C237.496 40.4714 233.732 44.4391 227.859 44.4391C221.986 44.4391 218.222 40.4296 218.222 34.0811ZM232.719 34.0811C232.719 29.9045 230.92 27.3986 227.88 27.3986C224.839 27.3986 222.999 29.9045 222.999 34.0811C222.999 38.2578 224.819 40.7637 227.88 40.7637C230.94 40.7637 232.719 38.2578 232.719 34.0811Z" fill="white"/>
<path id="Vector_11" d="M245.498 23.9736H250.089V28.0249H245.498V23.9736ZM245.581 30.0297H250.006V43.9378H245.581V30.0297Z" fill="white"/>
<path id="Vector_12" d="M59.9943 61.3754C56.9749 61.3754 54.5967 59.2245 54.5967 56.3217C54.5967 53.419 56.9543 51.2471 59.9943 51.2471C63.0343 51.2471 65.3713 53.3772 65.3713 56.3217C65.3713 59.2662 63.0343 61.3754 59.9943 61.3754ZM59.9943 58.9112C61.4833 58.9112 62.6001 57.9297 62.6001 56.3217C62.6001 54.7137 61.4833 53.7113 59.9943 53.7113C58.5053 53.7113 57.3679 54.6719 57.3679 56.3217C57.3679 57.9715 58.526 58.9112 59.9943 58.9112ZM71.2652 67.3271V69.6033H57.5954V62.9208H60.4286V67.3271H71.2652ZM70.7689 64.3408H67.915V49.9941H70.7689V64.3408Z" fill="white"/>
<path id="Vector_13" d="M83.3013 50.2864H85.9484V69.0603H83.3013V59.642H81.7502C81.5021 63.5472 79.889 65.8861 77.4694 65.8861C74.8429 65.8861 73.1885 63.1504 73.1885 58.6188C73.1885 54.0871 74.8429 51.3723 77.4694 51.3723C79.8063 51.3723 81.3987 53.5859 81.7295 57.324H83.3013V50.2864ZM79.2065 58.6188C79.2065 55.5698 78.5861 54.0662 77.49 54.0662C76.394 54.0662 75.7735 55.5698 75.7735 58.6188C75.7735 61.6677 76.4146 63.1921 77.49 63.1921C78.5654 63.1921 79.2065 61.6886 79.2065 58.6188ZM90.0225 49.9314V69.9165H87.334V49.9314H90.0225Z" fill="white"/>
<path id="Vector_14" d="M102.679 58.4724C102.679 62.8788 100.466 65.6353 97.4672 65.6353C94.4685 65.6353 92.2764 62.8788 92.2764 58.4724C92.2764 54.0661 94.4892 51.3513 97.4672 51.3513C100.445 51.3513 102.679 54.087 102.679 58.4724ZM95.0062 58.4724C95.0062 61.4378 96.0196 63.0249 97.4672 63.0249C98.9148 63.0249 99.9489 61.4378 99.9489 58.4724C99.9489 55.507 98.9355 53.9408 97.4672 53.9408C95.9989 53.9408 95.0062 55.5279 95.0062 58.4724ZM108.118 49.9521V69.9999H105.284V49.9521H108.118Z" fill="white"/>
<path id="Vector_15" d="M128.303 58.0759V60.3312H110.414V58.0759H128.303ZM115.295 67.6612H126.648V69.7913H112.482V64.5914H123.339V63.5681H112.461V61.4589H126.131V66.5335H115.295V67.6612ZM126.049 56.99H112.71V50.3074H115.522V51.623H123.236V50.3074H126.049V56.99ZM123.236 53.7113H115.522V54.8808H123.236V53.7113Z" fill="white"/>
<path id="Vector_16" d="M147.059 65.3014V67.6194H129.129V65.3014H136.657V61.9183C133.182 61.4798 130.701 59.475 130.701 56.4887C130.701 53.1474 133.865 50.9756 138.063 50.9756C142.261 50.9756 145.446 53.1474 145.446 56.4887C145.446 59.4541 142.985 61.5006 139.469 61.9183V65.3014H147.038H147.059ZM138.084 59.7256C140.813 59.7256 142.675 58.5353 142.675 56.4887C142.675 54.4422 140.813 53.2518 138.084 53.2518C135.354 53.2518 133.513 54.4422 133.513 56.4887C133.513 58.5353 135.374 59.7256 138.084 59.7256Z" fill="white"/>
<path id="Vector_17" d="M165.755 65.4266V67.7447H147.825V65.4266H155.374V62.1062H149.935V51.3306H163.687V53.6068H152.809V55.5698H163.232V57.7834H152.809V59.8717H163.832V62.1271H158.207V65.4475H165.755V65.4266Z" fill="white"/>
<path id="Vector_18" d="M177.046 58.4726C177.046 62.8789 174.833 65.6354 171.855 65.6354C168.877 65.6354 166.644 62.8789 166.644 58.4726C166.644 54.0662 168.836 51.3514 171.855 51.3514C174.874 51.3514 177.046 54.0871 177.046 58.4726ZM174.316 58.4726C174.316 55.528 173.303 53.9409 171.855 53.9409C170.407 53.9409 169.373 55.528 169.373 58.4726C169.373 61.4171 170.366 63.0251 171.855 63.0251C173.344 63.0251 174.316 61.4379 174.316 58.4726ZM184.904 59.8717H182.03V69.9582H179.197V49.9731H182.03V57.5119H184.904V59.8717Z" fill="white"/>
<path id="Vector_19" d="M196.196 58.4724C196.196 62.8788 193.983 65.6353 190.985 65.6353C187.986 65.6353 185.794 62.8788 185.794 58.4724C185.794 54.0661 188.007 51.3513 190.985 51.3513C193.963 51.3513 196.196 54.087 196.196 58.4724ZM188.524 58.4724C188.524 61.4378 189.537 63.0249 190.985 63.0249C192.432 63.0249 193.466 61.4378 193.466 58.4724C193.466 55.507 192.453 53.9408 190.985 53.9408C189.516 53.9408 188.524 55.5279 188.524 58.4724ZM201.635 49.9521V69.9999H198.802V49.9521H201.635Z" fill="white"/>
</g>
<path id="Vector_20" d="M44.7527 1.50358V0H8.91332V1.50358V2.98628H5.956V5.99344H2.978V7.49702V8.97972H1.50968H0V10.4833V37.8819V68.1623H1.36492H1.489H36.0462V66.6379H1.489V45.003H1.50968V39.4272H2.978V63.6725V65.176H38.7967V63.6725H4.467V39.4272H5.93532V60.6653H5.956V62.1689H41.7747V60.6653H7.42432V39.4272H8.91332V57.6581V59.1617H10.4023H44.7527V57.6581H10.4023V39.4272H36.0462V37.9236H1.50968V10.4833H2.978V34.9374V36.4409H38.7967V34.9374H4.467V10.4833H5.956V33.4547H7.445V33.4338H41.7747V31.9302H7.445V10.4833H8.91332V28.9439V30.4475H10.4023H44.7527V28.9439H10.4023V10.4833H36.0462V8.97972H4.467V7.49702H38.7967V5.99344H7.445V4.51074H41.7747V2.98628H10.4023V1.50358H44.7527Z" fill="white"/>
</g>
</svg>
