<svg width="251" height="70" viewBox="0 0 251 70" fill="none" xmlns="http://www.w3.org/2000/svg">
<path d="M69.0105 40.4714V43.9589H55.4233V24.2035H68.8037V27.691H60.0765V32.1391H68.3487V35.5848H60.0765V40.4714H69.0105Z" fill="#88A1CC"/>
<path d="M71.7197 24.2035H76.8692L83.1561 35.4803C83.5904 36.3157 84.0867 37.3181 84.3349 38.049H84.3969C84.3969 37.2763 84.3762 36.4619 84.3762 35.5221V24.2244H88.6364V43.9798H83.6731L77.1794 32.5985C76.6624 31.6796 76.2901 30.907 76.0213 30.176H75.9592C75.9592 30.9905 75.9799 31.8258 75.9799 32.7864V43.9589H71.7197V24.2035Z" fill="#88A1CC"/>
<path d="M103.734 39.3437H96.5161L95.0271 43.9589H90.374L97.4881 24.2035H102.803L109.917 43.9589H105.243L103.754 39.3437H103.734ZM102.658 36.0442L100.859 30.5311C100.59 29.6749 100.342 28.756 100.135 27.7536H100.073C99.9078 28.756 99.6389 29.6749 99.3494 30.5311L97.5502 36.0442H102.617H102.658Z" fill="#88A1CC"/>
<path d="M127.433 38.404C127.433 41.5155 125.261 43.9589 120.794 43.9589H111.612V24.2035H120.422C124.889 24.2035 126.916 26.3962 126.916 29.299C126.916 31.3664 125.675 33.0579 123.38 33.6635C125.923 34.0603 127.392 35.7727 127.392 38.3831L127.433 38.404ZM116.265 27.5239V32.327H119.181C121.27 32.327 122.077 31.2411 122.077 29.9046C122.077 28.5681 121.187 27.503 119.181 27.503H116.265V27.5239ZM122.573 38.0072C122.573 36.4827 121.56 35.4386 119.595 35.4386H116.265V40.6385H119.492C121.622 40.6385 122.573 39.4899 122.573 37.9863V38.0072Z" fill="#88A1CC"/>
<path d="M129.687 24.2035H134.34V40.1373H142.281V43.9589H129.687V24.2035Z" fill="#88A1CC"/>
<path d="M157.854 40.4714V43.9589H144.267V24.2035H157.647V27.691H148.92V32.1391H157.192V35.5848H148.92V40.4714H157.854Z" fill="#88A1CC"/>
<path d="M178.39 39.3437H171.172L169.683 43.9589H165.03L172.144 24.2035H177.459L184.573 43.9589H179.9L178.411 39.3437H178.39ZM177.315 36.0442L175.515 30.5311C175.246 29.6749 174.998 28.756 174.791 27.7536H174.729C174.564 28.756 174.295 29.6749 174.006 30.5311L172.206 36.0442H177.273H177.315Z" fill="#88A1CC"/>
<path d="M189.743 24.2035V36.8586C189.743 39.1766 191.087 40.6176 193.383 40.6176C195.678 40.6176 197.023 39.1766 197.023 36.8586V24.2035H201.676V37.0466C201.676 41.5573 198.594 44.4183 193.383 44.4183C188.171 44.4183 185.09 41.5573 185.09 37.0466V24.2035H189.743Z" fill="#88A1CC"/>
<path d="M218.965 27.9416H213.257V43.9589H208.625V27.9416H202.958V24.2035H218.965V27.9416Z" fill="#88A1CC"/>
<path d="M218.221 34.0811C218.221 27.7118 222.005 23.7231 227.858 23.7231C233.71 23.7231 237.495 27.6909 237.495 34.0811C237.495 40.4714 233.731 44.4391 227.858 44.4391C221.985 44.4391 218.221 40.4296 218.221 34.0811ZM232.718 34.0811C232.718 29.9045 230.919 27.3986 227.879 27.3986C224.838 27.3986 222.998 29.9045 222.998 34.0811C222.998 38.2578 224.818 40.7637 227.879 40.7637C230.939 40.7637 232.718 38.2578 232.718 34.0811Z" fill="#88A1CC"/>
<path d="M245.498 23.9738H250.089V28.0251H245.498V23.9738ZM245.581 30.0298H250.006V43.938H245.581V30.0298Z" fill="#88A1CC"/>
<path d="M59.9938 61.3753C56.9745 61.3753 54.5962 59.2243 54.5962 56.3216C54.5962 53.4188 56.9538 51.247 59.9938 51.247C63.0339 51.247 65.3708 53.3771 65.3708 56.3216C65.3708 59.2661 63.0339 61.3753 59.9938 61.3753ZM59.9938 58.9111C61.4828 58.9111 62.5996 57.9296 62.5996 56.3216C62.5996 54.7136 61.4828 53.7112 59.9938 53.7112C58.5048 53.7112 57.3674 54.6718 57.3674 56.3216C57.3674 57.9713 58.5255 58.9111 59.9938 58.9111ZM71.2647 67.327V69.6032H57.5949V62.9206H60.4281V67.327H71.2647ZM70.7684 64.3407H67.9145V49.994H70.7684V64.3407Z" fill="#88A1CC"/>
<path d="M83.3008 50.2864H85.9479V69.0603H83.3008V59.642H81.7497C81.5016 63.5472 79.8885 65.8861 77.4689 65.8861C74.8424 65.8861 73.188 63.1504 73.188 58.6188C73.188 54.0871 74.8424 51.3723 77.4689 51.3723C79.8058 51.3723 81.3982 53.5859 81.7291 57.324H83.3008V50.2864ZM79.206 58.6188C79.206 55.5698 78.5856 54.0662 77.4895 54.0662C76.3935 54.0662 75.7731 55.5698 75.7731 58.6188C75.7731 61.6677 76.4142 63.1921 77.4895 63.1921C78.5649 63.1921 79.206 61.6886 79.206 58.6188ZM90.022 49.9314V69.9165H87.3335V49.9314H90.022Z" fill="#88A1CC"/>
<path d="M102.678 58.4724C102.678 62.8788 100.465 65.6353 97.4667 65.6353C94.468 65.6353 92.2759 62.8788 92.2759 58.4724C92.2759 54.0661 94.4887 51.3513 97.4667 51.3513C100.445 51.3513 102.678 54.087 102.678 58.4724ZM95.0057 58.4724C95.0057 61.4378 96.0191 63.0249 97.4667 63.0249C98.9143 63.0249 99.9484 61.4378 99.9484 58.4724C99.9484 55.507 98.935 53.9408 97.4667 53.9408C95.9984 53.9408 95.0057 55.5279 95.0057 58.4724ZM108.117 49.9521V69.9999H105.284V49.9521H108.117Z" fill="#88A1CC"/>
<path d="M128.302 58.0757V60.3311H110.413V58.0757H128.302ZM115.294 67.6611H126.647V69.7911H112.481V64.5913H123.338V63.568H112.46V61.4588H126.13V66.5334H115.294V67.6611ZM126.048 56.9898H112.709V50.3073H115.521V51.6229H123.235V50.3073H126.048V56.9898ZM123.235 53.7112H115.521V54.8806H123.235V53.7112Z" fill="#88A1CC"/>
<path d="M147.058 65.3014V67.6194H129.128V65.3014H136.656V61.9183C133.182 61.4798 130.7 59.475 130.7 56.4887C130.7 53.1474 133.864 50.9756 138.062 50.9756C142.261 50.9756 145.445 53.1474 145.445 56.4887C145.445 59.4541 142.984 61.5006 139.469 61.9183V65.3014H147.038H147.058ZM138.083 59.7256C140.813 59.7256 142.674 58.5353 142.674 56.4887C142.674 54.4422 140.813 53.2518 138.083 53.2518C135.353 53.2518 133.513 54.4422 133.513 56.4887C133.513 58.5353 135.374 59.7256 138.083 59.7256Z" fill="#88A1CC"/>
<path d="M165.754 65.4266V67.7447H147.824V65.4266H155.373V62.1062H149.934V51.3306H163.686V53.6068H152.808V55.5698H163.231V57.7834H152.808V59.8717H163.831V62.1271H158.206V65.4475H165.754V65.4266Z" fill="#88A1CC"/>
<path d="M177.045 58.4726C177.045 62.8789 174.833 65.6354 171.855 65.6354C168.877 65.6354 166.643 62.8789 166.643 58.4726C166.643 54.0662 168.835 51.3514 171.855 51.3514C174.874 51.3514 177.045 54.0871 177.045 58.4726ZM174.316 58.4726C174.316 55.528 173.302 53.9409 171.855 53.9409C170.407 53.9409 169.373 55.528 169.373 58.4726C169.373 61.4171 170.366 63.0251 171.855 63.0251C173.344 63.0251 174.316 61.4379 174.316 58.4726ZM184.904 59.8717H182.029V69.9582H179.196V49.9731H182.029V57.5119H184.904V59.8717Z" fill="#88A1CC"/>
<path d="M196.196 58.4724C196.196 62.8788 193.983 65.6353 190.984 65.6353C187.986 65.6353 185.793 62.8788 185.793 58.4724C185.793 54.0661 188.006 51.3513 190.984 51.3513C193.962 51.3513 196.196 54.087 196.196 58.4724ZM188.523 58.4724C188.523 61.4378 189.537 63.0249 190.984 63.0249C192.432 63.0249 193.466 61.4378 193.466 58.4724C193.466 55.507 192.453 53.9408 190.984 53.9408C189.516 53.9408 188.523 55.5279 188.523 58.4724ZM201.635 49.9521V69.9999H198.802V49.9521H201.635Z" fill="#88A1CC"/>
<path d="M44.7527 1.50358V0H8.91332V1.50358V2.98628H5.956V5.99344H2.978V7.49702V8.97972H1.50968H0V10.4833V37.8819V68.1623H1.36492H1.489H36.0462V66.6379H1.489V45.003H1.50968V39.4272H2.978V63.6725V65.176H38.7967V63.6725H4.467V39.4272H5.93532V60.6653H5.956V62.1689H41.7747V60.6653H7.42432V39.4272H8.91332V57.6581V59.1617H10.4023H44.7527V57.6581H10.4023V39.4272H36.0462V37.9236H1.50968V10.4833H2.978V34.9374V36.4409H38.7967V34.9374H4.467V10.4833H5.956V33.4547H7.445V33.4338H41.7747V31.9302H7.445V10.4833H8.91332V28.9439V30.4475H10.4023H44.7527V28.9439H10.4023V10.4833H36.0462V8.97972H4.467V7.49702H38.7967V5.99344H7.445V4.51074H41.7747V2.98628H10.4023V1.50358H44.7527Z" fill="#88A1CC"/>
</svg>
