<svg width="187" height="53" viewBox="0 0 187 53" fill="none" xmlns="http://www.w3.org/2000/svg">
<path d="M51.602 30.2618V32.8695H41.4424V18.0977H51.4473V20.7054H44.9217V24.0314H51.1071V26.6078H44.9217V30.2618H51.602Z" fill="#002D74"/>
<path d="M53.627 18.0977H57.4774L62.1783 26.5298C62.5031 27.1544 62.8742 27.9039 63.0597 28.4504H63.1061C63.1061 27.8727 63.0907 27.2637 63.0907 26.561V18.1133H66.2762V32.8851H62.5649L57.7093 24.3749C57.3228 23.6878 57.0444 23.1101 56.8434 22.5636H56.797C56.797 23.1725 56.8125 23.7971 56.8125 24.5154V32.8695H53.627V18.0977Z" fill="#002D74"/>
<path d="M77.5657 29.4185H72.1689L71.0555 32.8695H67.5762L72.8956 18.0977H76.8698L82.1893 32.8695H78.6945L77.5811 29.4185H77.5657ZM76.7615 26.9514L75.4162 22.829C75.2152 22.1888 75.0296 21.5017 74.875 20.7522H74.8286C74.7049 21.5017 74.5039 22.1888 74.2874 22.829L72.942 26.9514H76.7306H76.7615Z" fill="#002D74"/>
<path d="M95.2857 28.7159C95.2857 31.0425 93.662 32.8695 90.3219 32.8695H83.4561V18.0977H90.0435C93.3837 18.0977 94.8991 19.7372 94.8991 21.9077C94.8991 23.4536 93.9713 24.7184 92.2548 25.1713C94.1569 25.4679 95.2548 26.7484 95.2548 28.7003L95.2857 28.7159ZM86.9354 20.5804V24.1719H89.1157C90.6776 24.1719 91.2806 23.3599 91.2806 22.3606C91.2806 21.3612 90.6157 20.5648 89.1157 20.5648H86.9354V20.5804ZM91.6518 28.4192C91.6518 27.2793 90.894 26.4985 89.425 26.4985H86.9354V30.3867H89.3477C90.9404 30.3867 91.6518 29.5278 91.6518 28.4036V28.4192Z" fill="#002D74"/>
<path d="M96.9717 18.0977H100.451V30.0119H106.389V32.8695H96.9717V18.0977Z" fill="#002D74"/>
<path d="M118.034 30.2618V32.8695H107.874V18.0977H117.879V20.7054H111.353V24.0314H117.539V26.6078H111.353V30.2618H118.034Z" fill="#002D74"/>
<path d="M133.389 29.4185H127.992L126.879 32.8695H123.399L128.719 18.0977H132.693L138.013 32.8695H134.518L133.404 29.4185H133.389ZM132.585 26.9514L131.239 22.829C131.038 22.1888 130.853 21.5017 130.698 20.7522H130.652C130.528 21.5017 130.327 22.1888 130.111 22.829L128.765 26.9514H132.554H132.585Z" fill="#002D74"/>
<path d="M141.878 18.0977V27.5604C141.878 29.2936 142.883 30.3711 144.599 30.3711C146.316 30.3711 147.321 29.2936 147.321 27.5604V18.0977H150.8V27.7009C150.8 31.0737 148.496 33.213 144.599 33.213C140.703 33.213 138.398 31.0737 138.398 27.7009V18.0977H141.878Z" fill="#002D74"/>
<path d="M163.728 20.8927H159.46V32.8695H155.996V20.8927H151.759V18.0977H163.728V20.8927Z" fill="#002D74"/>
<path d="M163.172 25.4836C163.172 20.721 166.002 17.7385 170.378 17.7385C174.754 17.7385 177.584 20.7054 177.584 25.4836C177.584 30.2618 174.77 33.2286 170.378 33.2286C165.986 33.2286 163.172 30.2305 163.172 25.4836ZM174.012 25.4836C174.012 22.3606 172.667 20.4868 170.393 20.4868C168.12 20.4868 166.744 22.3606 166.744 25.4836C166.744 28.6066 168.105 30.4804 170.393 30.4804C172.682 30.4804 174.012 28.6066 174.012 25.4836Z" fill="#002D74"/>
<path d="M183.567 17.9258H187V20.9551H183.567V17.9258ZM183.629 22.4541H186.938V32.8537H183.629V22.4541Z" fill="#002D74"/>
<path d="M44.8592 45.8923C42.6016 45.8923 40.8232 44.2839 40.8232 42.1134C40.8232 39.9429 42.5861 38.319 44.8592 38.319C47.1324 38.319 48.8798 39.9117 48.8798 42.1134C48.8798 44.3151 47.1324 45.8923 44.8592 45.8923ZM44.8592 44.0497C45.9726 44.0497 46.8077 43.3158 46.8077 42.1134C46.8077 40.9111 45.9726 40.1616 44.8592 40.1616C43.7459 40.1616 42.8954 40.8798 42.8954 42.1134C42.8954 43.347 43.7613 44.0497 44.8592 44.0497ZM53.2869 50.3425V52.0446H43.0655V47.0478H45.184V50.3425H53.2869ZM52.9158 48.1096H50.7818V37.3821H52.9158V48.1096Z" fill="#002D74"/>
<path d="M62.2873 37.6009H64.2666V51.6388H62.2873V44.5964H61.1275C60.9419 47.5164 59.7358 49.2653 57.9265 49.2653C55.9627 49.2653 54.7256 47.2198 54.7256 43.8313C54.7256 40.4428 55.9627 38.4129 57.9265 38.4129C59.6739 38.4129 60.8646 40.0681 61.1121 42.8632H62.2873V37.6009ZM59.2255 43.8313C59.2255 41.5515 58.7616 40.4272 57.942 40.4272C57.1224 40.4272 56.6585 41.5515 56.6585 43.8313C56.6585 46.1111 57.1379 47.251 57.942 47.251C58.7461 47.251 59.2255 46.1267 59.2255 43.8313ZM67.313 37.3354V52.279H65.3027V37.3354H67.313Z" fill="#002D74"/>
<path d="M76.7762 43.722C76.7762 47.0168 75.1216 49.078 72.8794 49.078C70.6372 49.078 68.998 47.0168 68.998 43.722C68.998 40.4272 70.6527 38.3973 72.8794 38.3973C75.1062 38.3973 76.7762 40.4428 76.7762 43.722ZM71.0392 43.722C71.0392 45.9393 71.797 47.1261 72.8794 47.1261C73.9619 47.1261 74.735 45.9393 74.735 43.722C74.735 41.5047 73.9773 40.3335 72.8794 40.3335C71.7815 40.3335 71.0392 41.5203 71.0392 43.722ZM80.8432 37.3511V52.3415H78.7246V37.3511H80.8432Z" fill="#002D74"/>
<path d="M95.9356 43.4252V45.1117H82.5596V43.4252H95.9356ZM86.209 50.5925H94.6985V52.1853H84.1059V48.2971H92.2243V47.532H84.0905V45.9549H94.3119V49.7493H86.209V50.5925ZM94.25 42.6133H84.276V37.6165H86.3791V38.6002H92.147V37.6165H94.25V42.6133ZM92.147 40.1617H86.3791V41.0361H92.147V40.1617Z" fill="#002D74"/>
<path d="M109.961 48.8281V50.5614H96.5537V48.8281H102.182V46.2985C99.5846 45.9706 97.7289 44.4715 97.7289 42.2386C97.7289 39.7402 100.095 38.1162 103.234 38.1162C106.373 38.1162 108.754 39.7402 108.754 42.2386C108.754 44.4559 106.914 45.9862 104.286 46.2985V48.8281H109.945H109.961ZM103.249 44.6589C105.291 44.6589 106.682 43.7688 106.682 42.2386C106.682 40.7083 105.291 39.8182 103.249 39.8182C101.208 39.8182 99.832 40.7083 99.832 42.2386C99.832 43.7688 101.224 44.6589 103.249 44.6589Z" fill="#002D74"/>
<path d="M123.94 48.922V50.6552H110.533V48.922H116.177V46.4392H112.11V38.3818H122.394V40.0839H114.26V41.5517H122.054V43.2069H114.26V44.7684H122.502V46.4548H118.296V48.9376H123.94V48.922Z" fill="#002D74"/>
<path d="M132.383 43.7218C132.383 47.0165 130.728 49.0777 128.501 49.0777C126.275 49.0777 124.604 47.0165 124.604 43.7218C124.604 40.427 126.244 38.397 128.501 38.397C130.759 38.397 132.383 40.4426 132.383 43.7218ZM130.341 43.7218C130.341 41.52 129.584 40.3333 128.501 40.3333C127.419 40.3333 126.646 41.52 126.646 43.7218C126.646 45.9235 127.388 47.1258 128.501 47.1258C129.615 47.1258 130.341 45.9391 130.341 43.7218ZM138.259 44.768H136.109V52.31H133.991V37.3665H136.109V43.0035H138.259V44.768Z" fill="#002D74"/>
<path d="M146.703 43.722C146.703 47.0168 145.048 49.078 142.806 49.078C140.564 49.078 138.925 47.0168 138.925 43.722C138.925 40.4272 140.579 38.3973 142.806 38.3973C145.033 38.3973 146.703 40.4428 146.703 43.722ZM140.966 43.722C140.966 45.9393 141.724 47.1261 142.806 47.1261C143.889 47.1261 144.662 45.9393 144.662 43.722C144.662 41.5047 143.904 40.3335 142.806 40.3335C141.708 40.3335 140.966 41.5203 140.966 43.722ZM150.77 37.3511V52.3415H148.651V37.3511H150.77Z" fill="#002D74"/>
<path d="M33.4632 1.12428V0H6.66481V1.12428V2.23295H4.45352V4.48151H2.22676V5.60579V6.71446H1.12884H0V7.83874V28.3256V50.9674H1.0206H1.11338H26.953V49.8275H1.11338V33.6504H1.12884V29.4812H2.22676V47.6102V48.7345H29.0097V47.6102H3.34014V29.4812H4.43805V45.3616H4.45352V46.4859H31.2365V45.3616H5.55143V29.4812H6.66481V43.1131V44.2373H7.77819H33.4632V43.1131H7.77819V29.4812H26.953V28.3569H1.12884V7.83874H2.22676V26.1239V27.2482H29.0097V26.1239H3.34014V7.83874H4.45352V25.0153H5.56689V24.9996H31.2365V23.8754H5.56689V7.83874H6.66481V21.6424V22.7667H7.77819H33.4632V21.6424H7.77819V7.83874H26.953V6.71446H3.34014V5.60579H29.0097V4.48151H5.56689V3.37284H31.2365V2.23295H7.77819V1.12428H33.4632Z" fill="#002D74"/>
</svg>
