<svg width="174" height="26" viewBox="0 0 174 26" fill="none" xmlns="http://www.w3.org/2000/svg">
<path d="M33.163 4.28889C44.3012 7.7885 53.1237 7.99525 56.8316 18.0755C56.0339 4.51581 41.1976 7.00185 33.1098 2.20123C28.8557 -0.330193 20.4005 -2.09513 3.53857 5.19153C3.53857 5.19153 22.75 1.01116 33.163 4.28889Z" fill="white"/>
<path d="M8.57129 8.18692C8.57129 8.18692 28.5803 2.54922 39.9796 9.28622C39.9796 9.28622 20.2267 6.95147 8.57129 8.18692Z" fill="white"/>
<path d="M22.4937 11.4143C22.4937 11.4143 39.607 9.1602 46.7859 12.3169C46.7859 12.3169 27.1346 12.2261 22.4937 11.4143Z" fill="white"/>
<path d="M9.37366 14.7575L8.77421 19.2203L13.7438 14.6768H16.074C14.5077 12.7001 11.8198 11.394 8.76454 11.394C3.92059 11.389 0 14.6617 0 18.6958C0 21.7416 2.23343 24.3487 5.40955 25.4429L7.06771 14.7575H9.37366ZM7.87503 25.9623C8.16509 25.9875 8.46481 25.9976 8.76454 25.9976C9.91509 25.9976 11.0125 25.806 12.0228 25.4681L8.56633 20.8138L7.87503 25.9623ZM17.5242 18.6958C17.5242 17.3192 17.0602 16.0333 16.2625 14.934L10.8819 20.2288L14.0677 24.4949C16.161 23.1586 17.5194 21.0608 17.5194 18.6958H17.5242Z" fill="white"/>
<path d="M25.907 14.7576H23.282L16.2095 25.9523H19.2309L20.8987 22.967H25.7475L26.6225 25.9523H29.4022L25.907 14.7576ZM22.3297 20.6424L24.0797 17.5764L24.9547 20.6424H22.3297Z" fill="white"/>
<path d="M49.5994 14.7576H46.9744L39.9019 25.9523H42.9233L44.5911 22.967H49.4399L50.3149 25.9523H53.0946L49.5994 14.7576ZM46.022 20.6424L47.7721 17.5764L48.6471 20.6424H46.022Z" fill="white"/>
<path d="M36.2039 14.6313L31.8337 14.712L30.103 25.8967H32.4863L33.1051 21.5953H35.5561C39.1141 21.4692 39.7957 18.5293 39.7957 18.5293C39.7957 18.5293 40.7626 14.6616 36.2039 14.6313ZM37.2191 18.2772C37.2191 18.2772 37.0547 19.5782 35.4256 19.5379H33.371L33.7964 16.6484H35.6866C37.5816 16.5576 37.2191 18.2772 37.2191 18.2772Z" fill="white"/>
<path d="M65.6689 13.749C65.3691 13.6078 65.0307 13.3153 64.6633 12.8867C64.2911 12.453 64.0155 12.0143 63.8367 11.5655C63.7255 11.9689 63.4789 12.4076 63.0922 12.8816C62.7054 13.3556 62.3429 13.6935 62.0045 13.9003L61.3809 13.3809C62.1012 12.9573 62.6233 12.4177 62.9423 11.7622C63.2614 11.1066 63.4258 10.33 63.4258 9.43749V8.28777H64.2427V9.43749C64.2427 10.3401 64.4071 11.0864 64.7358 11.6714C65.0646 12.2563 65.5528 12.7505 66.191 13.159L65.6689 13.754V13.749ZM67.5591 7.87427V10.794H68.5936V11.5201H67.5591V15.1508H66.7807V7.87427H67.5591Z" fill="white"/>
<path d="M72.1952 11.742C71.7359 11.7773 71.2718 11.8025 70.7981 11.8126L69.0674 11.8277V8.36341H72.5239V9.05929H69.8409V11.1268L71.1171 11.1167C71.4362 11.1066 71.8133 11.0814 72.2435 11.0511C72.6738 11.0159 72.9977 10.9806 73.2249 10.9453V11.6311C72.9977 11.6714 72.6544 11.7067 72.1952 11.742ZM69.7829 14.9895V12.5488H70.5515V14.2936H74.7332V14.9895H69.7829ZM74.5253 7.87427V10.0174H75.5066V10.7133H74.5253V13.1439H73.747V7.87427H74.5253Z" fill="white"/>
<path d="M65.4754 17.7527H67.0465V16.1492H67.8249V20.0522H67.0465V18.4738H65.4754V19.8707H62.1494V16.4618H62.9277V17.5208H64.7067V16.4618H65.4754V17.7527ZM67.8007 23.3451H62.9229V20.4607H63.7012V21.2372H67.0272V20.4607H67.8055V23.3451H67.8007ZM64.7067 19.2V18.1915H62.9277V19.2H64.7067ZM67.0224 22.6593V21.9129H63.6964V22.6593H67.0224Z" fill="white"/>
<path d="M72.7315 18.2471C72.7315 18.7614 72.5527 19.1951 72.1998 19.5582C71.8469 19.9212 71.3924 20.0977 70.8365 20.0977C70.2806 20.0977 69.8358 19.9162 69.4781 19.5582C69.1252 19.1951 68.9463 18.7614 68.9463 18.2471C68.9463 17.7327 69.1252 17.294 69.4781 16.9309C69.831 16.5679 70.2854 16.3863 70.8365 16.3863C71.3876 16.3863 71.8469 16.5679 72.1998 16.9309C72.5527 17.294 72.7315 17.7327 72.7315 18.2471ZM71.929 18.2471C71.929 17.9344 71.8324 17.6621 71.6438 17.4403C71.4553 17.2184 71.1846 17.1074 70.8317 17.1074C70.4788 17.1074 70.2177 17.2184 70.0292 17.4403C69.8406 17.6621 69.7439 17.9344 69.7439 18.2471C69.7439 18.5597 69.8406 18.8219 70.0292 19.0438C70.2177 19.2657 70.4884 19.3766 70.8317 19.3766C71.1749 19.3766 71.4553 19.2657 71.6438 19.0438C71.8324 18.8219 71.929 18.5547 71.929 18.2471ZM75.0858 23.2595H70.0098V20.9499H70.8027V22.5636H75.0858V23.2595ZM74.9311 21.4139H74.1528V16.1443H74.9311V21.4139Z" fill="white"/>
<path d="M86.1516 10.093H79.6108V9.11977H86.1516V10.093ZM82.874 14.3591C82.0183 14.3591 81.3367 14.1725 80.8242 13.7994C80.3118 13.4262 80.0556 12.9976 80.0556 12.5084C80.0556 11.9891 80.3118 11.5554 80.8291 11.2024C81.3463 10.8544 82.0328 10.678 82.8836 10.678C83.7345 10.678 84.4693 10.8544 84.9624 11.2024C85.4555 11.5503 85.702 11.984 85.702 12.5084C85.702 13.0329 85.4555 13.4363 84.9576 13.8044C84.4596 14.1725 83.7635 14.3591 82.874 14.3591ZM88.6413 17.9192H81.1143V14.9592H82.3567V16.9107H88.6413V17.9243V17.9192ZM84.5998 8.35329H81.1578V7.39014H84.5998V8.35329ZM84.4355 12.4984C84.4355 12.221 84.3049 11.9941 84.0487 11.8176C83.7925 11.6411 83.4057 11.5503 82.8981 11.5503C82.3905 11.5503 82.0038 11.6411 81.7428 11.8176C81.4817 11.9941 81.3512 12.2261 81.3512 12.4984C81.3512 12.7707 81.4817 12.9875 81.7379 13.164C81.9941 13.3405 82.3857 13.4262 82.8981 13.4262C83.4106 13.4262 83.7925 13.3405 84.0487 13.169C84.3049 12.9976 84.4355 12.7757 84.4355 12.4984ZM89.8015 11.6714H88.3319V15.3878H87.1717V7.44056H88.3319V10.6074H89.8015V11.6663V11.6714Z" fill="white"/>
<path d="M95.4189 12.7253V14.7121H98.8464V18.1613H97.6379V15.7358H91.0391V14.7121H94.1959V12.7253H89.8257V11.7017H97.198C97.2511 11.4646 97.3333 11.0663 97.4445 10.4965C97.5557 9.92663 97.633 9.39715 97.6814 8.89793H91.0101V7.87427H99.0301C99.0156 8.18187 98.948 8.77691 98.8271 9.64929C98.7062 10.5217 98.5612 11.2075 98.3872 11.7017H100.161V12.7253H95.4189Z" fill="white"/>
<path d="M106.576 16.0283C106.136 15.7207 105.639 15.2769 105.087 14.702C104.531 14.1272 104.174 13.5624 104.019 13.0178C103.83 13.6279 103.463 14.2532 102.907 14.8886C102.356 15.529 101.815 16.0182 101.283 16.356L100.321 15.529C101.689 14.7071 102.54 13.7843 102.873 12.7556C103.207 11.7269 103.371 10.9553 103.371 10.4359V9.62911H101.036V8.57015H107.026V9.62911H104.676V10.4359C104.676 10.9402 104.831 11.6663 105.141 12.6194C105.45 13.5725 106.199 14.3944 107.389 15.0954L106.576 16.0333V16.0283ZM109.511 7.43555V11.6663H111.048V12.7757H109.511V18.1613H108.336V7.43555H109.511Z" fill="white"/>
<path d="M121.302 13.507H110.966V12.4934H115.51V11.2983H112.281V7.78857H119.938V8.80215H113.47V10.2897H120.059V11.3033H116.738V12.4984H121.306V13.512L121.302 13.507ZM120.243 16.2855C120.243 16.8805 119.89 17.3747 119.179 17.768C118.469 18.1613 117.453 18.358 116.134 18.358C114.814 18.358 113.804 18.1613 113.088 17.768C112.373 17.3747 112.015 16.8805 112.015 16.2855C112.015 15.6904 112.373 15.1912 113.088 14.8029C113.804 14.4197 114.819 14.223 116.134 14.223C117.449 14.223 118.473 14.4146 119.179 14.8029C119.885 15.1912 120.243 15.6854 120.243 16.2855ZM116.134 15.1509C115.302 15.1509 114.63 15.2517 114.118 15.4534C113.605 15.6551 113.349 15.9274 113.349 16.2703C113.349 16.6132 113.605 16.8654 114.118 17.0721C114.63 17.2839 115.302 17.3898 116.134 17.3898C116.965 17.3898 117.623 17.2839 118.135 17.0772C118.647 16.8704 118.904 16.6032 118.904 16.2804C118.904 15.9577 118.647 15.6753 118.135 15.4635C117.623 15.2517 116.955 15.1458 116.134 15.1458V15.1509Z" fill="white"/>
<path d="M127.702 16.2501C127.388 16.0888 126.938 15.7358 126.353 15.1962C125.769 14.6566 125.372 14.1473 125.169 13.6683C124.99 14.2129 124.618 14.7676 124.052 15.3273C123.487 15.8871 122.979 16.2703 122.525 16.472L121.63 15.5946C122.563 15.1861 123.279 14.6113 123.772 13.8599C124.27 13.1085 124.516 12.3269 124.516 11.5151V11.1016H122.201V10.0426H128.084V11.1016H125.783V11.5151C125.783 12.3017 126.005 13.0027 126.45 13.6128C126.895 14.223 127.572 14.7928 128.471 15.3172L127.697 16.2552L127.702 16.2501ZM123.487 8.98365V7.95998H126.813V8.98365H123.487ZM130.685 7.43555V11.7369H132.222V12.8463H130.685V18.1613H129.51V7.43555H130.685Z" fill="white"/>
<path d="M142.437 14.6516H137.859V18.1613H136.685V14.6516H132.106V13.6279H142.442V14.6516H142.437ZM141.098 12.4681H133.441V7.66748H134.615V8.97353H139.923V7.66748H141.098V12.4681ZM139.923 11.4444V9.99215H134.615V11.4444H139.923Z" fill="white"/>
<path d="M153.005 13.5069H148.46V14.6062H151.666V18.0453H144.008V14.6062H147.203V13.5069H142.669V12.4933H153.005V13.5069ZM152.076 11.5201H143.597V10.5216H145.192L145.038 8.6962H143.829V7.69775H151.84V8.6962H150.631L150.476 10.5216H152.072V11.5201H152.076ZM150.491 17.0166V15.6248H145.183V17.0166H150.491ZM149.456 8.69116H146.217L146.357 10.5166H149.316L149.456 8.69116Z" fill="white"/>
<path d="M159.841 9.93677H153.537V8.99883H159.841V9.93677ZM156.684 13.6078C155.838 13.6078 155.175 13.4515 154.692 13.1389C154.209 12.8262 153.972 12.448 153.972 11.9992C153.972 11.5504 154.213 11.1621 154.692 10.8596C155.175 10.557 155.843 10.4007 156.708 10.4007C157.573 10.4007 158.274 10.552 158.729 10.8596C159.183 11.1621 159.41 11.5454 159.41 11.9992C159.41 12.4531 159.178 12.8262 158.719 13.1389C158.255 13.4515 157.578 13.6078 156.689 13.6078H156.684ZM158.294 8.30799H155.088V7.39526H158.294V8.30799ZM162.698 18.0454H155.204V14.1071H156.403V15.0954H161.499V14.1071H162.698V18.0454ZM158.153 11.9891C158.153 11.7773 158.042 11.6008 157.82 11.4597C157.597 11.3185 157.225 11.2479 156.708 11.2479C156.191 11.2479 155.818 11.3134 155.586 11.4445C155.354 11.5756 155.238 11.7622 155.238 12.0043C155.238 12.2312 155.354 12.4127 155.586 12.5388C155.818 12.6699 156.191 12.7354 156.708 12.7354C157.225 12.7354 157.593 12.6699 157.82 12.5388C158.042 12.4077 158.153 12.2261 158.153 11.9891ZM161.499 17.1074V16.0485H156.403V17.1074H161.499ZM162.731 13.5826H161.566V12.559H159.734V11.5605H161.566V10.5974H159.971V9.59891H161.566V7.44065H162.731V13.5826Z" fill="white"/>
<path d="M169.901 16.4619C169.185 16.4972 168.358 16.5224 167.43 16.5426L164.128 16.5527V15.5189H167.324V14.4247C166.705 14.3339 166.202 14.1373 165.811 13.8347C165.419 13.5321 165.226 13.164 165.226 12.7303C165.226 12.2412 165.482 11.8328 165.994 11.4999C166.507 11.1671 167.145 11.0007 167.904 11.0007C168.663 11.0007 169.316 11.1722 169.828 11.505C170.345 11.8428 170.602 12.2563 170.602 12.7404C170.602 13.1489 170.413 13.5019 170.031 13.8095C169.649 14.112 169.166 14.3087 168.571 14.3995V15.5089C169.156 15.5089 169.717 15.4887 170.249 15.4433C170.78 15.3979 171.254 15.3475 171.67 15.292V16.3258C171.206 16.3812 170.621 16.4317 169.901 16.467V16.4619ZM164.704 10.4813V9.48287H171.022V10.4813H164.704ZM166.149 8.75168V7.76332H169.557V8.75168H166.149ZM168.997 12.1202C168.702 11.9538 168.339 11.8681 167.899 11.8681C167.459 11.8681 167.121 11.9538 166.831 12.1202C166.541 12.2866 166.396 12.4883 166.396 12.7253C166.396 12.9623 166.541 13.1691 166.831 13.3203C167.121 13.4767 167.479 13.5523 167.914 13.5523C168.349 13.5523 168.716 13.4767 169.006 13.3203C169.296 13.164 169.441 12.9724 169.441 12.7354C169.441 12.4984 169.296 12.2866 169.001 12.1202H168.997ZM172.139 18.1613V7.43555H173.314V18.1613H172.139Z" fill="white"/>
<path d="M82.1583 24.1318L80.5485 22.0189C80.4131 22.1601 80.2971 22.2811 80.2004 22.3769C80.1037 22.4728 80.0312 22.5484 79.9829 22.5988V24.1268H79.4463V19.548H79.9829V21.7769C80.2391 21.5096 80.5437 21.1718 80.8917 20.7683C81.2398 20.3649 81.5589 19.9565 81.8441 19.543H82.5209C82.2453 19.9363 81.9746 20.3095 81.6991 20.6524C81.4283 20.9953 81.1721 21.3029 80.9401 21.5701L82.8206 24.152L82.1583 24.1368V24.1318Z" fill="white"/>
<path d="M85.1698 21.182C85.4309 21.5199 85.5614 21.9434 85.5614 22.4628C85.5614 22.9822 85.4309 23.4109 85.1698 23.7487C84.9088 24.0866 84.551 24.258 84.0966 24.258C83.6422 24.258 83.2845 24.0866 83.0234 23.7487C82.7624 23.4058 82.6318 22.9772 82.6318 22.4628C82.6318 21.9485 82.7624 21.5199 83.0234 21.182C83.2845 20.8441 83.6422 20.6777 84.0966 20.6777C84.551 20.6777 84.9088 20.8441 85.1698 21.182ZM84.7541 23.3856C84.9185 23.1486 85.0055 22.841 85.0055 22.4628C85.0055 22.0846 84.9233 21.7821 84.7541 21.5501C84.5897 21.3182 84.3673 21.2022 84.0966 21.2022C83.8259 21.2022 83.6035 21.3182 83.4392 21.5501C83.2748 21.7821 83.1926 22.0846 83.1926 22.4628C83.1926 22.841 83.2748 23.1486 83.4392 23.3856C83.6035 23.6227 83.8211 23.7437 84.0966 23.7437C84.3722 23.7437 84.5849 23.6227 84.7541 23.3856Z" fill="white"/>
<path d="M87.6356 21.3282C87.539 21.3282 87.4519 21.3282 87.3746 21.3433C87.2972 21.3534 87.2247 21.3786 87.1619 21.4189C86.9975 21.5198 86.8718 21.661 86.7848 21.8375C86.6978 22.019 86.6543 22.256 86.6543 22.5636V24.142H86.1177V20.8088H86.6446V21.2878C86.722 21.1567 86.7993 21.0508 86.8815 20.9752C86.9637 20.8995 87.0652 20.8289 87.1861 20.7684C87.2731 20.723 87.3649 20.6978 87.4664 20.6928C87.568 20.6928 87.6163 20.6877 87.6211 20.6877L87.6308 21.3282H87.6356Z" fill="white"/>
<path d="M88.2787 22.6543C88.2884 22.972 88.3754 23.2342 88.5542 23.4359C88.7283 23.6427 88.9313 23.7435 89.1682 23.7435C89.4051 23.7435 89.5743 23.683 89.6903 23.567C89.8063 23.4511 89.8837 23.3351 89.9127 23.2191H90.488C90.4203 23.4561 90.2849 23.683 90.0819 23.8999C89.8788 24.1167 89.5743 24.2276 89.173 24.2276C88.7718 24.2276 88.4044 24.0612 88.1337 23.7284C87.8629 23.3956 87.7324 22.972 87.7324 22.4627C87.7324 21.9534 87.8629 21.5298 88.1192 21.202C88.3802 20.8743 88.7283 20.7129 89.1682 20.7129C89.5549 20.7129 89.8933 20.8642 90.1834 21.1667C90.4735 21.4693 90.6088 21.9635 90.604 22.6493H88.2835L88.2787 22.6543ZM90.0384 22.1753C90.0287 21.8777 89.9417 21.6458 89.7918 21.4642C89.6371 21.2878 89.4293 21.197 89.1682 21.197C88.9265 21.197 88.7235 21.2777 88.5688 21.439C88.4141 21.6004 88.3222 21.8424 88.2932 22.1702H90.0384V22.1753Z" fill="white"/>
<path d="M93.2048 24.1318C93.1709 24.0662 93.1468 23.9906 93.1323 23.92C93.1178 23.8444 93.1081 23.7687 93.1081 23.6981C93.0017 23.8292 92.8615 23.9503 92.6827 24.0662C92.5038 24.1772 92.3008 24.2427 92.0687 24.2579C91.7787 24.278 91.5224 24.2175 91.3049 24.0814C91.0874 23.9452 90.9568 23.7233 90.923 23.4208C90.8843 23.1081 90.9327 22.8661 91.0729 22.6896C91.2131 22.5181 91.3919 22.3921 91.6046 22.3215C91.7835 22.2559 91.9624 22.2206 92.1509 22.2105C92.3394 22.2005 92.5183 22.1752 92.6923 22.1399C92.7842 22.1198 92.876 22.0895 92.9679 22.0593C93.0597 22.029 93.1081 21.9433 93.1081 21.8021C93.1081 21.6609 93.0549 21.5348 92.9437 21.4037C92.8325 21.2726 92.644 21.2071 92.3781 21.2071C92.1122 21.2071 91.9189 21.2676 91.798 21.3886C91.6771 21.5096 91.624 21.6559 91.6433 21.8273H91.097C91.068 21.4541 91.184 21.1718 91.4451 20.9751C91.7061 20.7784 92.0155 20.6826 92.3781 20.6826C92.7165 20.6826 93.0162 20.7784 93.2725 20.97C93.5335 21.1617 93.664 21.434 93.664 21.7769V23.5973C93.664 23.7435 93.6834 23.8696 93.722 23.9755C93.7607 24.0814 93.7849 24.1419 93.7849 24.1469L93.2048 24.1318ZM93.1032 22.4425C93.0742 22.4677 93.0356 22.498 92.9824 22.5232C92.9292 22.5484 92.876 22.5686 92.8229 22.5837C92.702 22.614 92.5473 22.6442 92.3636 22.6644C92.1799 22.6846 92.0445 22.7098 91.9624 22.7451C91.8028 22.8056 91.6771 22.8762 91.5901 22.9619C91.5031 23.0476 91.4693 23.1737 91.4886 23.3401C91.5079 23.5065 91.5805 23.6225 91.711 23.678C91.8415 23.7334 91.9769 23.7586 92.1171 23.7486C92.4361 23.7233 92.6827 23.6124 92.8519 23.4157C93.0211 23.2241 93.1032 23.0426 93.1032 22.8762V22.4526V22.4425Z" fill="white"/>
<path d="M99.9341 24.1319L99.5328 23.0074H97.5846L97.1931 24.1319H96.6274L98.2373 19.5481H98.8802L100.495 24.147L99.9293 24.1319H99.9341ZM98.566 20.2238L97.7973 22.4224H99.3298L98.566 20.2238Z" fill="white"/>
<path d="M102.67 24.1419V23.7334C102.588 23.8746 102.462 23.9956 102.298 24.1066C102.133 24.2125 101.935 24.2679 101.713 24.2679C101.461 24.2679 101.229 24.1671 101.012 23.9654C100.794 23.7637 100.688 23.446 100.688 23.0224V20.8137H101.229V22.8257C101.229 23.1233 101.287 23.3401 101.413 23.4763C101.534 23.6124 101.703 23.678 101.926 23.6628C102.143 23.6477 102.327 23.562 102.467 23.3956C102.607 23.2292 102.68 22.9972 102.68 22.6946V20.8137H103.231V24.152H102.67V24.1419Z" fill="white"/>
<path d="M104.662 24.1419C104.551 24.1419 104.459 24.1117 104.386 24.0562C104.314 24.0008 104.251 23.9352 104.198 23.8646C104.145 23.7839 104.111 23.6982 104.096 23.6175C104.077 23.5318 104.072 23.4007 104.072 23.2242V21.3584L103.709 21.3433V20.839H104.072V19.7952H104.609V20.8289L105.024 20.834L105.034 21.3534H104.609V23.1385C104.609 23.2242 104.609 23.2998 104.613 23.3553C104.613 23.4158 104.642 23.4713 104.696 23.5267C104.739 23.5721 104.792 23.5973 104.86 23.6074C104.928 23.6175 104.981 23.6226 105.024 23.6226L105.034 24.1419H104.657H104.662Z" fill="white"/>
<path d="M107.901 21.182C108.162 21.5199 108.292 21.9434 108.292 22.4628C108.292 22.9822 108.162 23.4109 107.901 23.7487C107.64 24.0866 107.282 24.258 106.828 24.258C106.373 24.258 106.015 24.0866 105.754 23.7487C105.493 23.4058 105.363 22.9772 105.363 22.4628C105.363 21.9485 105.493 21.5199 105.754 21.182C106.015 20.8441 106.373 20.6777 106.828 20.6777C107.282 20.6777 107.64 20.8441 107.901 21.182ZM107.485 23.3856C107.649 23.1486 107.736 22.841 107.736 22.4628C107.736 22.0846 107.654 21.7821 107.485 21.5501C107.321 21.3182 107.098 21.2022 106.828 21.2022C106.557 21.2022 106.334 21.3182 106.17 21.5501C106.006 21.7821 105.924 22.0846 105.924 22.4628C105.924 22.841 106.006 23.1486 106.17 23.3856C106.334 23.6227 106.552 23.7437 106.828 23.7437C107.103 23.7437 107.316 23.6227 107.485 23.3856Z" fill="white"/>
<path d="M112.208 24.1318V22.0341C112.203 21.7719 112.169 21.5752 112.106 21.4441C112.044 21.313 111.903 21.2525 111.686 21.2676C111.497 21.2827 111.347 21.3634 111.236 21.5197C111.125 21.6761 111.067 21.8879 111.067 22.1602V24.1419H110.521V22.0391C110.521 21.7769 110.492 21.5803 110.429 21.4492C110.366 21.318 110.226 21.2575 110.008 21.2727C109.815 21.2878 109.665 21.3685 109.554 21.5248C109.443 21.6811 109.385 21.8929 109.385 22.1652V24.147H108.848V20.8138H109.375V21.1768C109.477 21.0558 109.602 20.9348 109.747 20.8239C109.892 20.7079 110.086 20.6675 110.327 20.6927C110.468 20.7129 110.593 20.7633 110.7 20.8541C110.806 20.9449 110.893 21.0709 110.956 21.2474C111.028 21.1466 111.144 21.0205 111.304 20.8692C111.468 20.718 111.7 20.6575 112 20.6978C112.285 20.7331 112.479 20.8692 112.58 21.1062C112.682 21.3433 112.735 21.6004 112.735 21.8828V24.152H112.198L112.208 24.1318Z" fill="white"/>
<path d="M115.809 21.182C116.071 21.5199 116.201 21.9434 116.201 22.4628C116.201 22.9822 116.071 23.4109 115.809 23.7487C115.548 24.0866 115.191 24.258 114.736 24.258C114.282 24.258 113.924 24.0866 113.663 23.7487C113.402 23.4058 113.271 22.9772 113.271 22.4628C113.271 21.9485 113.402 21.5199 113.663 21.182C113.924 20.8441 114.282 20.6777 114.736 20.6777C115.191 20.6777 115.548 20.8441 115.809 21.182ZM115.394 23.3856C115.558 23.1486 115.645 22.841 115.645 22.4628C115.645 22.0846 115.563 21.7821 115.394 21.5501C115.229 21.3182 115.007 21.2022 114.736 21.2022C114.466 21.2022 114.243 21.3182 114.079 21.5501C113.914 21.7821 113.832 22.0846 113.832 22.4628C113.832 22.841 113.914 23.1486 114.079 23.3856C114.243 23.6227 114.461 23.7437 114.736 23.7437C115.012 23.7437 115.225 23.6227 115.394 23.3856Z" fill="white"/>
<path d="M119.247 21.1818C119.503 21.5046 119.634 21.9382 119.634 22.4778C119.634 23.0174 119.503 23.4359 119.247 23.7637C118.991 24.0965 118.652 24.2629 118.241 24.2629C118.048 24.2629 117.874 24.2226 117.715 24.1419C117.555 24.0612 117.415 23.9503 117.294 23.8091V24.1368H116.757V19.543H117.294V21.1365C117.415 20.9953 117.555 20.8843 117.715 20.8087C117.874 20.733 118.048 20.6927 118.241 20.6927C118.657 20.6927 118.991 20.8541 119.247 21.1768V21.1818ZM118.822 23.3754C118.981 23.1485 119.063 22.851 119.063 22.4778C119.063 22.1046 118.981 21.8071 118.822 21.5802C118.662 21.3533 118.44 21.2423 118.164 21.2423C117.889 21.2423 117.661 21.3482 117.502 21.5651C117.342 21.7769 117.265 22.0845 117.265 22.4778C117.265 22.8711 117.342 23.1787 117.502 23.3956C117.661 23.6124 117.879 23.7183 118.164 23.7183C118.449 23.7183 118.662 23.6074 118.822 23.3804V23.3754Z" fill="white"/>
<path d="M120.243 20.1128V19.4875H120.77L120.779 20.128L120.238 20.1128H120.243ZM120.243 24.1268V20.7734H120.77L120.779 24.1268H120.238H120.243Z" fill="white"/>
<path d="M121.591 24.1319V19.5481H122.118V24.142L121.591 24.1369V24.1319Z" fill="white"/>
<path d="M123.24 22.6543C123.25 22.972 123.337 23.2342 123.516 23.4359C123.69 23.6427 123.893 23.7435 124.13 23.7435C124.366 23.7435 124.536 23.683 124.652 23.567C124.768 23.4511 124.845 23.3351 124.874 23.2191H125.449C125.382 23.4561 125.246 23.683 125.043 23.8999C124.84 24.1167 124.536 24.2276 124.134 24.2276C123.733 24.2276 123.366 24.0612 123.095 23.7284C122.824 23.3956 122.694 22.972 122.694 22.4627C122.694 21.9534 122.824 21.5298 123.081 21.202C123.337 20.8743 123.69 20.7129 124.125 20.7129C124.512 20.7129 124.85 20.8642 125.14 21.1667C125.43 21.4693 125.57 21.9635 125.561 22.6493H123.24V22.6543ZM125 22.1753C124.99 21.8777 124.908 21.6458 124.753 21.4642C124.599 21.2878 124.391 21.197 124.13 21.197C123.888 21.197 123.685 21.2777 123.53 21.439C123.375 21.6004 123.284 21.8424 123.255 22.1702H125V22.1753Z" fill="white"/>
<path d="M131.352 19.9163C131.613 20.1684 131.744 20.5012 131.744 20.9248C131.744 21.3484 131.613 21.6762 131.352 21.9384C131.091 22.2006 130.767 22.3317 130.385 22.3317H129.302V24.1219H128.766V19.5431H130.38C130.762 19.5381 131.086 19.6591 131.347 19.9112L131.352 19.9163ZM130.922 21.5602C131.086 21.4291 131.163 21.2173 131.163 20.9248C131.163 20.6323 131.081 20.4205 130.922 20.2995C130.757 20.1785 130.578 20.118 130.385 20.118H129.302V21.7518H130.385C130.583 21.7518 130.762 21.6863 130.922 21.5551V21.5602Z" fill="white"/>
<path d="M134.117 24.1318C134.083 24.0662 134.059 23.9906 134.044 23.92C134.03 23.8444 134.02 23.7687 134.02 23.6981C133.914 23.8292 133.774 23.9503 133.595 24.0662C133.416 24.1772 133.213 24.2427 132.981 24.2579C132.691 24.278 132.435 24.2175 132.217 24.0814C131.999 23.9452 131.869 23.7233 131.835 23.4208C131.796 23.1081 131.845 22.8661 131.985 22.6896C132.125 22.5181 132.299 22.3921 132.517 22.3215C132.691 22.2559 132.874 22.2206 133.063 22.2105C133.252 22.2005 133.43 22.1752 133.604 22.1399C133.696 22.1198 133.788 22.0895 133.88 22.0593C133.972 22.029 134.02 21.9433 134.02 21.8021C134.02 21.6609 133.967 21.5348 133.856 21.4037C133.745 21.2726 133.556 21.2071 133.29 21.2071C133.024 21.2071 132.831 21.2676 132.71 21.3886C132.589 21.5096 132.536 21.6559 132.555 21.8273H132.009C131.98 21.4541 132.096 21.1718 132.357 20.9751C132.618 20.7784 132.928 20.6826 133.29 20.6826C133.629 20.6826 133.928 20.7784 134.185 20.97C134.446 21.1617 134.576 21.434 134.576 21.7769V23.5973C134.576 23.7435 134.595 23.8696 134.634 23.9755C134.673 24.0814 134.692 24.1419 134.697 24.1469L134.117 24.1318ZM134.015 22.4425C133.986 22.4677 133.948 22.498 133.895 22.5232C133.841 22.5484 133.788 22.5686 133.735 22.5837C133.614 22.614 133.459 22.6442 133.276 22.6644C133.092 22.6846 132.957 22.7098 132.874 22.7451C132.715 22.8056 132.589 22.8762 132.502 22.9619C132.415 23.0476 132.381 23.1737 132.401 23.3401C132.42 23.5065 132.493 23.6225 132.623 23.678C132.754 23.7334 132.889 23.7586 133.029 23.7486C133.348 23.7233 133.595 23.6124 133.764 23.4157C133.933 23.2241 134.015 23.0426 134.015 22.8762V22.4526V22.4425Z" fill="white"/>
<path d="M136.839 21.3282C136.742 21.3282 136.655 21.3282 136.578 21.3433C136.5 21.3534 136.428 21.3786 136.365 21.4189C136.201 21.5198 136.075 21.661 135.988 21.8375C135.901 22.019 135.857 22.256 135.857 22.5636V24.142H135.321V20.8088H135.848V21.2878C135.925 21.1567 136.002 21.0508 136.085 20.9752C136.167 20.8995 136.268 20.8289 136.389 20.7684C136.476 20.723 136.568 20.6978 136.67 20.6928C136.771 20.6928 136.819 20.6877 136.824 20.6877L136.834 21.3282H136.839Z" fill="white"/>
<path d="M138.178 24.1419C138.067 24.1419 137.975 24.1117 137.902 24.0562C137.83 24.0008 137.767 23.9352 137.714 23.8646C137.661 23.7839 137.627 23.6982 137.612 23.6175C137.593 23.5318 137.588 23.4007 137.588 23.2242V21.3584L137.226 21.3433V20.839H137.588V19.7952H138.125V20.8289L138.541 20.834L138.55 21.3534H138.125V23.1385C138.125 23.2242 138.125 23.2998 138.13 23.3553C138.13 23.4158 138.159 23.4713 138.212 23.5267C138.255 23.5721 138.308 23.5973 138.376 23.6074C138.444 23.6175 138.497 23.6226 138.541 23.6226L138.55 24.1419H138.173H138.178Z" fill="white"/>
<path d="M141.301 22.6896C141.412 22.8106 141.461 22.9821 141.446 23.204C141.432 23.5065 141.306 23.7587 141.069 23.9604C140.832 24.1621 140.547 24.2579 140.218 24.2579C139.71 24.2579 139.362 24.1116 139.179 23.8141C138.995 23.5166 138.898 23.2544 138.889 23.0325H139.43C139.449 23.2191 139.527 23.3754 139.657 23.4964C139.788 23.6175 139.972 23.678 140.199 23.678C140.387 23.678 140.537 23.6427 140.653 23.567C140.769 23.4914 140.837 23.3855 140.861 23.2443C140.876 23.1535 140.856 23.0729 140.793 23.0023C140.731 22.9317 140.653 22.8711 140.552 22.8157C140.397 22.7299 140.228 22.6694 140.054 22.6442C139.88 22.614 139.73 22.5787 139.604 22.5333C139.425 22.4677 139.275 22.3618 139.159 22.2257C139.043 22.0845 138.99 21.903 139.005 21.671C139.014 21.4189 139.126 21.1919 139.329 20.9953C139.536 20.7986 139.817 20.6978 140.179 20.6978C140.581 20.6978 140.876 20.8188 141.069 21.0659C141.262 21.313 141.354 21.55 141.344 21.7819H140.808C140.808 21.6912 140.764 21.5853 140.677 21.4592C140.59 21.3331 140.416 21.2726 140.15 21.2726C139.933 21.2726 139.778 21.318 139.691 21.4037C139.604 21.4895 139.561 21.5853 139.561 21.6811C139.561 21.8223 139.599 21.9181 139.681 21.9685C139.764 22.0189 139.86 22.0593 139.972 22.0996C140.092 22.14 140.242 22.1803 140.426 22.2106C140.605 22.2459 140.769 22.3064 140.909 22.3921C141.059 22.4778 141.19 22.5837 141.296 22.6997L141.301 22.6896Z" fill="white"/>
<path d="M147.585 24.1319L147.184 23.0074H145.241L144.844 24.1319H144.279L145.889 19.5481H146.532L148.146 24.147L147.581 24.1319H147.585ZM146.217 20.2238L145.449 22.4224H146.981L146.217 20.2238Z" fill="white"/>
<path d="M150.641 22.6896C150.752 22.8106 150.8 22.9821 150.786 23.204C150.771 23.5065 150.646 23.7587 150.409 23.9604C150.172 24.1621 149.887 24.2579 149.558 24.2579C149.05 24.2579 148.702 24.1116 148.519 23.8141C148.335 23.5166 148.238 23.2544 148.229 23.0325H148.77C148.789 23.2191 148.867 23.3754 148.997 23.4964C149.128 23.6175 149.311 23.678 149.539 23.678C149.727 23.678 149.877 23.6427 149.993 23.567C150.109 23.4914 150.177 23.3855 150.201 23.2443C150.215 23.1535 150.196 23.0729 150.133 23.0023C150.075 22.9317 149.993 22.8711 149.892 22.8157C149.737 22.7299 149.568 22.6694 149.394 22.6442C149.22 22.614 149.07 22.5787 148.944 22.5333C148.765 22.4677 148.615 22.3618 148.499 22.2257C148.383 22.0845 148.33 21.903 148.345 21.671C148.354 21.4189 148.465 21.1919 148.668 20.9953C148.876 20.7986 149.157 20.6978 149.519 20.6978C149.921 20.6978 150.215 20.8188 150.409 21.0659C150.602 21.313 150.694 21.55 150.684 21.7819H150.148C150.148 21.6912 150.104 21.5853 150.017 21.4592C149.93 21.3331 149.756 21.2726 149.49 21.2726C149.273 21.2726 149.118 21.318 149.031 21.4037C148.944 21.4895 148.9 21.5853 148.9 21.6811C148.9 21.8223 148.939 21.9181 149.021 21.9685C149.104 22.0189 149.2 22.0593 149.311 22.0996C149.432 22.14 149.582 22.1803 149.766 22.2106C149.945 22.2459 150.109 22.3064 150.249 22.3921C150.399 22.4778 150.53 22.5837 150.636 22.6997L150.641 22.6896Z" fill="white"/>
<path d="M153.546 22.6896C153.657 22.8106 153.706 22.9821 153.691 23.204C153.677 23.5065 153.551 23.7587 153.314 23.9604C153.077 24.1621 152.792 24.2579 152.463 24.2579C151.956 24.2579 151.608 24.1116 151.424 23.8141C151.24 23.5166 151.143 23.2544 151.134 23.0325H151.675C151.695 23.2191 151.772 23.3754 151.902 23.4964C152.033 23.6175 152.217 23.678 152.444 23.678C152.632 23.678 152.782 23.6427 152.898 23.567C153.014 23.4914 153.082 23.3855 153.106 23.2443C153.121 23.1535 153.101 23.0729 153.038 23.0023C152.976 22.9317 152.898 22.8711 152.797 22.8157C152.642 22.7299 152.473 22.6694 152.299 22.6442C152.125 22.614 151.975 22.5787 151.849 22.5333C151.67 22.4677 151.521 22.3618 151.405 22.2257C151.288 22.0845 151.235 21.903 151.25 21.671C151.259 21.4189 151.371 21.1919 151.574 20.9953C151.782 20.7986 152.062 20.6978 152.425 20.6978C152.826 20.6978 153.121 20.8188 153.314 21.0659C153.507 21.313 153.599 21.55 153.59 21.7819H153.053C153.053 21.6912 153.009 21.5853 152.922 21.4592C152.835 21.3331 152.661 21.2726 152.396 21.2726C152.178 21.2726 152.023 21.318 151.936 21.4037C151.849 21.4895 151.806 21.5853 151.806 21.6811C151.806 21.8223 151.844 21.9181 151.927 21.9685C152.009 22.0189 152.105 22.0593 152.217 22.0996C152.338 22.14 152.487 22.1803 152.671 22.2106C152.85 22.2459 153.009 22.3064 153.155 22.3921C153.304 22.4778 153.435 22.5837 153.541 22.6997L153.546 22.6896Z" fill="white"/>
<path d="M156.567 21.182C156.828 21.5199 156.959 21.9434 156.959 22.4628C156.959 22.9822 156.828 23.4109 156.567 23.7487C156.306 24.0866 155.949 24.258 155.494 24.258C155.04 24.258 154.682 24.0866 154.421 23.7487C154.16 23.4058 154.029 22.9772 154.029 22.4628C154.029 21.9485 154.16 21.5199 154.421 21.182C154.682 20.8441 155.04 20.6777 155.494 20.6777C155.949 20.6777 156.306 20.8441 156.567 21.182ZM156.152 23.3856C156.316 23.1486 156.403 22.841 156.403 22.4628C156.403 22.0846 156.321 21.7821 156.152 21.5501C155.987 21.3182 155.765 21.2022 155.494 21.2022C155.223 21.2022 155.001 21.3182 154.837 21.5501C154.672 21.7821 154.59 22.0846 154.59 22.4628C154.59 22.841 154.672 23.1486 154.837 23.3856C155.001 23.6227 155.219 23.7437 155.494 23.7437C155.77 23.7437 155.982 23.6227 156.152 23.3856Z" fill="white"/>
<path d="M160.159 23.0679C160.087 23.3805 159.942 23.6579 159.719 23.8999C159.497 24.142 159.192 24.263 158.801 24.263C158.346 24.263 157.989 24.0966 157.728 23.7537C157.466 23.4158 157.336 22.9872 157.336 22.4678C157.336 21.9484 157.466 21.5198 157.728 21.1819C157.989 20.8441 158.346 20.6726 158.801 20.6726C159.197 20.6726 159.511 20.7987 159.743 21.0558C159.975 21.313 160.116 21.5803 160.159 21.8627H159.565C159.536 21.7265 159.463 21.5853 159.347 21.4441C159.226 21.3029 159.047 21.2273 158.806 21.2273C158.54 21.2273 158.327 21.3433 158.172 21.5702C158.018 21.8022 157.935 22.0946 157.935 22.4577C157.935 22.8208 158.013 23.1183 158.172 23.3503C158.327 23.5822 158.54 23.6982 158.806 23.6982C159.013 23.6982 159.183 23.6327 159.313 23.5015C159.444 23.3704 159.531 23.2192 159.569 23.0527H160.164L160.159 23.0679Z" fill="white"/>
<path d="M160.72 20.1128V19.4875H161.247L161.257 20.128L160.715 20.1128H160.72ZM160.72 24.1268V20.7734H161.247L161.257 24.1268H160.715H160.72Z" fill="white"/>
<path d="M164.085 24.1318C164.051 24.0662 164.027 23.9906 164.012 23.92C163.998 23.8444 163.988 23.7687 163.988 23.6981C163.882 23.8292 163.741 23.9503 163.563 24.0662C163.384 24.1772 163.181 24.2427 162.949 24.2579C162.659 24.278 162.402 24.2175 162.185 24.0814C161.967 23.9452 161.837 23.7233 161.803 23.4208C161.764 23.1081 161.813 22.8661 161.953 22.6896C162.093 22.5181 162.267 22.3921 162.484 22.3215C162.659 22.2559 162.842 22.2206 163.031 22.2105C163.219 22.2005 163.398 22.1752 163.572 22.1399C163.664 22.1198 163.756 22.0895 163.848 22.0593C163.94 22.029 163.988 21.9433 163.988 21.8021C163.988 21.6609 163.935 21.5348 163.824 21.4037C163.712 21.2726 163.524 21.2071 163.258 21.2071C162.992 21.2071 162.799 21.2676 162.678 21.3886C162.557 21.5096 162.504 21.6559 162.523 21.8273H161.977C161.948 21.4541 162.064 21.1718 162.325 20.9751C162.586 20.7784 162.895 20.6826 163.258 20.6826C163.596 20.6826 163.891 20.7784 164.152 20.97C164.413 21.1617 164.544 21.434 164.544 21.7769V23.5973C164.544 23.7435 164.563 23.8696 164.602 23.9755C164.641 24.0814 164.665 24.1419 164.665 24.1469L164.085 24.1318ZM163.983 22.4425C163.954 22.4677 163.915 22.498 163.862 22.5232C163.809 22.5484 163.756 22.5686 163.703 22.5837C163.582 22.614 163.427 22.6442 163.243 22.6644C163.06 22.6846 162.924 22.7098 162.842 22.7451C162.683 22.8056 162.557 22.8762 162.47 22.9619C162.383 23.0476 162.349 23.1737 162.368 23.3401C162.388 23.5065 162.46 23.6225 162.591 23.678C162.721 23.7334 162.857 23.7586 162.997 23.7486C163.316 23.7233 163.563 23.6124 163.732 23.4157C163.901 23.2241 163.983 23.0426 163.983 22.8762V22.4526V22.4425Z" fill="white"/>
<path d="M165.931 24.1419C165.82 24.1419 165.728 24.1117 165.656 24.0562C165.583 24.0008 165.52 23.9352 165.467 23.8646C165.414 23.7839 165.38 23.6982 165.366 23.6175C165.346 23.5318 165.342 23.4007 165.342 23.2242V21.3584L164.979 21.3433V20.839H165.342V19.7952H165.878V20.8289L166.294 20.834L166.304 21.3534H165.878V23.1385C165.878 23.2242 165.878 23.2998 165.883 23.3553C165.888 23.4108 165.912 23.4713 165.965 23.5267C166.009 23.5721 166.062 23.5973 166.13 23.6074C166.197 23.6175 166.25 23.6226 166.294 23.6226L166.304 24.1419H165.927H165.931Z" fill="white"/>
<path d="M166.903 20.1128V19.4875H167.43L167.44 20.128L166.898 20.1128H166.903ZM166.903 24.1268V20.7734H167.43L167.44 24.1268H166.898H166.903Z" fill="white"/>
<path d="M170.519 21.182C170.78 21.5199 170.911 21.9434 170.911 22.4628C170.911 22.9822 170.78 23.4109 170.519 23.7487C170.258 24.0866 169.9 24.258 169.446 24.258C168.991 24.258 168.634 24.0866 168.373 23.7487C168.111 23.4058 167.981 22.9772 167.981 22.4628C167.981 21.9485 168.111 21.5199 168.373 21.182C168.634 20.8441 168.991 20.6777 169.446 20.6777C169.9 20.6777 170.258 20.8441 170.519 21.182ZM170.103 23.3856C170.268 23.1486 170.355 22.841 170.355 22.4628C170.355 22.0846 170.272 21.7821 170.103 21.5501C169.939 21.3182 169.716 21.2022 169.446 21.2022C169.175 21.2022 168.953 21.3182 168.788 21.5501C168.624 21.7821 168.542 22.0846 168.542 22.4628C168.542 22.841 168.624 23.1486 168.788 23.3856C168.953 23.6227 169.17 23.7437 169.446 23.7437C169.721 23.7437 169.934 23.6227 170.103 23.3856Z" fill="white"/>
<path d="M173.454 24.1318V22.1298C173.454 21.8323 173.4 21.6205 173.294 21.4945C173.188 21.3634 173.023 21.3028 172.806 21.3028C172.588 21.3028 172.385 21.3936 172.231 21.5751C172.076 21.7567 171.999 21.9786 171.999 22.2408V24.1419H171.462V20.8087H171.989V21.1566C172.115 21.0255 172.269 20.9045 172.448 20.7986C172.632 20.6927 172.854 20.6574 173.115 20.6927C173.429 20.7381 173.652 20.8893 173.787 21.1415C173.923 21.3936 173.99 21.6407 173.99 21.8727V24.1419H173.444L173.454 24.1318Z" fill="white"/>
</svg>
