<svg width="146" height="39" viewBox="0 0 146 39" fill="none" xmlns="http://www.w3.org/2000/svg">
<path d="M39.0662 14.1819C37.9048 10.2442 32.4331 2.48657 22.6353 2.48657C13.3753 2.48657 6.94482 9.50689 6.94482 15.8134C6.94482 16.9821 7.01498 17.5077 7.30337 18.6058C7.18646 18.1274 7.1163 17.641 7.1163 17.1704C7.1163 10.605 13.6559 6.04771 20.3671 6.04771C29.4633 6.04771 36.837 13.4681 36.837 22.6219C36.837 29.7991 32.737 36.0037 26.7742 38.9922C34.4596 36.1998 39.947 28.7873 39.947 20.0962C39.947 18.0411 39.6742 16.2213 39.0662 14.1819Z" fill="white"/>
<path d="M29.9233 18.6136C26.5561 16.3154 22.2457 17.2488 19.9853 20.7158C18.0912 23.6102 15.2384 23.9632 14.1393 23.9632C10.5383 23.9632 8.07517 21.4139 7.34248 18.7784C7.34248 18.7784 7.32689 18.7313 7.32689 18.7078C7.3191 18.6764 7.3113 18.6529 7.30351 18.6215C7.01511 17.5233 6.94496 16.9978 6.94496 15.829C6.93716 9.50684 13.3677 2.48652 22.6276 2.48652C31.8876 2.48652 37.5386 9.75 38.9339 13.7896C38.9105 13.719 38.8871 13.6484 38.8637 13.5778C36.1746 5.679 28.7308 0 19.9697 0C8.94037 0 0 8.99698 0 20.0961C0 30.0187 7.10864 38.5137 16.9766 38.5137C24.8413 38.5137 30.1338 34.074 32.5579 27.9558C33.8908 24.6064 32.9398 20.6766 29.9233 18.6136Z" fill="white"/>
<path d="M66.4098 22.1985V28.7795H64.0792V24.2536H51.7405V22.1985H58.0229V19.4296H50.5635V17.3823H67.7973V19.4296H60.3379V22.1985H66.4098ZM66.4098 10.2522V15.8763H64.0792V12.323H51.9509V10.2522H66.4098Z" fill="white"/>
<path d="M86.0675 21.8611H79.9721V25.2811H87.4315V27.3362H70.1978V25.2811H77.6338V21.8611H71.5852V10.8169H86.0207V12.872H73.8768V15.3193H86.0207V17.3352H73.8768V19.806H86.0675V21.8611Z" fill="white"/>
<path d="M93.9246 25.2811V19.4217H96.1305V25.2811H99.2639V19.4217H101.493V25.2811H107.058V27.3284H89.8247V25.2811H93.9246ZM103.34 21.9631V12.9112H91.2121V10.8169H105.671V21.9631H103.34Z" fill="white"/>
<path d="M126.475 20.6532H109.241V18.7314H116.708V17.5078H110.636V10.0874H125.071V12.017H112.904V12.9426H125.071V14.6996H112.904V15.6487H125.118V17.5078H119.007V18.7314H126.49V20.6532H126.475ZM122.46 25.2811C122.46 25.8772 122.336 26.4341 122.094 26.9518C121.845 27.4695 121.517 27.9245 121.112 28.3088C120.691 28.701 120.208 29.0148 119.662 29.2501C119.116 29.4854 118.524 29.6031 117.9 29.6031C117.277 29.6031 116.677 29.4854 116.123 29.2501C115.57 29.0148 115.087 28.701 114.666 28.3088C114.26 27.9323 113.933 27.4774 113.691 26.9518C113.442 26.4341 113.325 25.8772 113.325 25.2811C113.325 24.6849 113.45 24.1359 113.691 23.6182C113.933 23.1005 114.26 22.6534 114.666 22.2769C115.087 21.8847 115.578 21.5709 116.123 21.3356C116.677 21.1003 117.269 20.9905 117.9 20.9905C118.532 20.9905 119.116 21.1081 119.662 21.3356C120.208 21.5709 120.691 21.8847 121.112 22.2769C121.517 22.6612 121.845 23.1083 122.094 23.6182C122.336 24.1359 122.46 24.6849 122.46 25.2811ZM120.208 25.2576C120.208 24.6222 119.982 24.081 119.537 23.6182C119.093 23.1632 118.54 22.9279 117.9 22.9279C117.261 22.9279 116.708 23.1554 116.248 23.6182C115.788 24.0731 115.562 24.6222 115.562 25.2576C115.562 25.8929 115.788 26.4341 116.248 26.8891C116.7 27.3362 117.254 27.5637 117.9 27.5637C118.547 27.5637 119.093 27.3362 119.537 26.8891C119.989 26.4341 120.208 25.8929 120.208 25.2576Z" fill="white"/>
<path d="M128.766 21.7826H146V23.8612H138.541V28.7245H136.21V23.8612H128.774V21.7826H128.766ZM132.445 12.566H142.305V10.1736H144.612V19.249H130.154V10.1736H132.445V12.566ZM142.305 14.5976H132.445V17.2017H142.305V14.5976Z" fill="white"/>
</svg>
