<svg width="56" height="60" viewBox="0 0 56 60" fill="none" xmlns="http://www.w3.org/2000/svg">
<path fill-rule="evenodd" clip-rule="evenodd" d="M12.0764 58.1962L11.592 56.9222H7.46001L6.97561 58.2253C6.78669 58.7339 6.622 59.0778 6.49121 59.257C6.35558 59.4363 6.13759 59.5235 5.83242 59.5235C5.57569 59.5235 5.34317 59.4266 5.14457 59.2377C4.94596 59.0488 4.84424 58.8308 4.84424 58.5934C4.84424 58.4529 4.86846 58.3125 4.91205 58.1623C4.96049 58.0121 5.03316 57.8087 5.13972 57.5471L7.74097 50.9447C7.81363 50.7558 7.90567 50.5281 8.00739 50.2617C8.10911 49.9953 8.22053 49.7773 8.34163 49.5981C8.45788 49.4237 8.61289 49.2783 8.80665 49.1718C9.00042 49.0652 9.23777 49.0071 9.51873 49.0071C9.79968 49.0071 10.0467 49.0604 10.2356 49.1718C10.4294 49.2783 10.5844 49.4188 10.7007 49.5932C10.8169 49.7627 10.9187 49.9468 11.001 50.1454C11.0833 50.344 11.1851 50.6056 11.311 50.9302L13.9655 57.489C14.1738 57.9879 14.2756 58.3512 14.2756 58.5789C14.2756 58.8066 14.1787 59.0294 13.9801 59.228C13.7815 59.4266 13.549 59.5235 13.268 59.5235C13.1082 59.5235 12.9677 59.4944 12.8514 59.4363C12.7352 59.3781 12.6383 59.3006 12.5608 59.1989C12.4833 59.0972 12.3961 58.947 12.3089 58.7436C12.2169 58.5401 12.1393 58.3561 12.0764 58.201V58.1962ZM7.9977 55.3721H11.0349L9.50419 51.1772L7.9977 55.3721Z" fill="white"/>
<path fill-rule="evenodd" clip-rule="evenodd" d="M15.2587 55.1445V50.2568C15.2587 49.8403 15.3507 49.5302 15.5397 49.3219C15.7286 49.1136 15.9708 49.0119 16.276 49.0119C16.5811 49.0119 16.8476 49.1136 17.0365 49.3219C17.2254 49.5302 17.3174 49.8403 17.3174 50.2568V55.2559C17.3174 55.8226 17.3804 56.2973 17.5063 56.68C17.6323 57.0627 17.86 57.3582 18.1845 57.5665C18.5091 57.7748 18.9596 57.8813 19.5457 57.8813C20.3498 57.8813 20.9165 57.6682 21.2508 57.2419C21.585 56.8157 21.7497 56.1666 21.7497 55.2946V50.2568C21.7497 49.8354 21.8417 49.5205 22.0258 49.3171C22.2099 49.1136 22.4569 49.0071 22.767 49.0071C23.077 49.0071 23.3289 49.1088 23.5178 49.3171C23.7115 49.5205 23.8036 49.8354 23.8036 50.2568V55.1445C23.8036 55.9389 23.7261 56.6025 23.5711 57.1354C23.4161 57.6682 23.1254 58.1332 22.6943 58.5353C22.3262 58.8792 21.895 59.1263 21.4058 59.2861C20.9165 59.4411 20.3401 59.5235 19.6862 59.5235C18.9063 59.5235 18.2329 59.4411 17.6662 59.2716C17.1043 59.102 16.6441 58.8405 16.2856 58.4868C15.9272 58.1332 15.6705 57.6779 15.5009 57.1257C15.3362 56.5735 15.249 55.9147 15.249 55.1445" fill="white"/>
<path fill-rule="evenodd" clip-rule="evenodd" d="M32.6389 50.8817H30.3913V58.2688C30.3913 58.6951 30.2944 59.0099 30.1055 59.2134C29.9166 59.4168 29.6695 59.5234 29.3692 59.5234C29.0689 59.5234 28.817 59.4217 28.6232 59.2134C28.4295 59.0051 28.3374 58.6902 28.3374 58.2688V50.8817H26.0898C25.7362 50.8817 25.4795 50.8041 25.3051 50.6491C25.1355 50.4941 25.0483 50.2907 25.0483 50.0339C25.0483 49.7772 25.1355 49.5641 25.3148 49.4091C25.494 49.2589 25.7507 49.1814 26.0898 49.1814H32.6341C32.9877 49.1814 33.2541 49.2589 33.4285 49.4188C33.6029 49.5786 33.6901 49.7821 33.6901 50.0339C33.6901 50.2858 33.6029 50.4941 33.4285 50.6491C33.2541 50.8041 32.9877 50.8817 32.6389 50.8817Z" fill="white"/>
<mask id="mask0_375_3200" style="mask-type:luminance" maskUnits="userSpaceOnUse" x="34" y="48" width="11" height="12">
<path d="M44.3516 48.9248H34.1743V59.8287H44.3516V48.9248Z" fill="white"/>
</mask>
<g mask="url(#mask0_375_3200)">
<mask id="mask1_375_3200" style="mask-type:luminance" maskUnits="userSpaceOnUse" x="34" y="48" width="11" height="12">
<path d="M44.3663 48.8472H34.1357V59.8916H44.3663V48.8472Z" fill="white"/>
</mask>
<g mask="url(#mask1_375_3200)">
<mask id="mask2_375_3200" style="mask-type:luminance" maskUnits="userSpaceOnUse" x="34" y="48" width="11" height="12">
<path d="M44.3663 48.8472H34.1357V59.8916H44.3663V48.8472Z" fill="white"/>
</mask>
<g mask="url(#mask2_375_3200)">
<path fill-rule="evenodd" clip-rule="evenodd" d="M39.1976 49.007C40.2536 49.007 41.1546 49.2201 41.9103 49.6464C42.666 50.0727 43.2375 50.683 43.6251 51.4726C44.0126 52.2622 44.2064 53.1874 44.2064 54.2482C44.2064 55.033 44.0998 55.7499 43.8866 56.3893C43.6735 57.0336 43.3538 57.5906 42.9275 58.0605C42.5013 58.5304 41.9781 58.8937 41.3581 59.1407C40.738 59.3926 40.0308 59.5137 39.2315 59.5137C38.4323 59.5137 37.725 59.3878 37.0953 59.131C36.4656 58.8743 35.9424 58.511 35.521 58.046C35.0996 57.5809 34.7847 57.019 34.5667 56.3602C34.3536 55.7015 34.2422 54.9942 34.2422 54.2289C34.2422 53.4635 34.3536 52.7321 34.5764 52.0781C34.7993 51.4242 35.1238 50.872 35.5501 50.4118C35.9764 49.9564 36.4947 49.6028 37.105 49.3606C37.7154 49.1184 38.4081 48.9973 39.1831 48.9973M42.1089 54.224C42.1089 53.478 41.9878 52.8338 41.7504 52.2913C41.5082 51.7439 41.1643 51.3321 40.7187 51.0512C40.273 50.7702 39.7595 50.6298 39.1831 50.6298C38.7714 50.6298 38.3935 50.7073 38.0448 50.8623C37.696 51.0173 37.3957 51.2401 37.1438 51.5404C36.8919 51.8359 36.6933 52.2137 36.5479 52.6739C36.4026 53.1341 36.33 53.6524 36.33 54.224C36.33 54.7956 36.4026 55.3236 36.5479 55.7935C36.6933 56.2585 36.9016 56.646 37.1631 56.9561C37.4296 57.2612 37.7347 57.4937 38.0787 57.6439C38.4226 57.7941 38.8004 57.8716 39.2122 57.8716C39.7402 57.8716 40.2246 57.7408 40.6654 57.4744C41.1062 57.2128 41.4598 56.8059 41.7214 56.2537C41.9829 55.7015 42.1137 55.0281 42.1137 54.224" fill="white"/>
</g>
<mask id="mask3_375_3200" style="mask-type:luminance" maskUnits="userSpaceOnUse" x="34" y="48" width="11" height="12">
<path d="M44.3663 48.8472H34.1357V59.8916H44.3663V48.8472Z" fill="white"/>
</mask>
<g mask="url(#mask3_375_3200)">
<path fill-rule="evenodd" clip-rule="evenodd" d="M39.1976 49.007C40.2536 49.007 41.1546 49.2201 41.9103 49.6464C42.666 50.0727 43.2375 50.683 43.6251 51.4726C44.0126 52.2622 44.2064 53.1874 44.2064 54.2482C44.2064 55.033 44.0998 55.7499 43.8866 56.3893C43.6735 57.0336 43.3538 57.5906 42.9275 58.0605C42.5013 58.5304 41.9781 58.8937 41.3581 59.1407C40.738 59.3926 40.0308 59.5137 39.2315 59.5137C38.4323 59.5137 37.725 59.3878 37.0953 59.131C36.4656 58.8743 35.9424 58.511 35.521 58.046C35.0996 57.5809 34.7847 57.019 34.5667 56.3602C34.3536 55.7015 34.2422 54.9942 34.2422 54.2289C34.2422 53.4635 34.3536 52.7321 34.5764 52.0781C34.7993 51.4242 35.1238 50.872 35.5501 50.4118C35.9764 49.9564 36.4947 49.6028 37.105 49.3606C37.7154 49.1184 38.4081 48.9973 39.1831 48.9973M42.1089 54.224C42.1089 53.478 41.9878 52.8338 41.7504 52.2913C41.5082 51.7439 41.1643 51.3321 40.7187 51.0512C40.273 50.7702 39.7595 50.6298 39.1831 50.6298C38.7714 50.6298 38.3935 50.7073 38.0448 50.8623C37.696 51.0173 37.3957 51.2401 37.1438 51.5404C36.8919 51.8359 36.6933 52.2137 36.5479 52.6739C36.4026 53.1341 36.33 53.6524 36.33 54.224C36.33 54.7956 36.4026 55.3236 36.5479 55.7935C36.6933 56.2585 36.9016 56.646 37.1631 56.9561C37.4296 57.2612 37.7347 57.4937 38.0787 57.6439C38.4226 57.7941 38.8004 57.8716 39.2122 57.8716C39.7402 57.8716 40.2246 57.7408 40.6654 57.4744C41.1062 57.2128 41.4598 56.8059 41.7214 56.2537C41.9829 55.7015 42.1137 55.0281 42.1137 54.224" fill="white"/>
</g>
</g>
</g>
<path fill-rule="evenodd" clip-rule="evenodd" d="M50.3487 50.9446C50.0872 50.9446 49.8595 50.8623 49.6706 50.7024C49.4816 50.5426 49.3896 50.3101 49.3896 50.0146C49.3896 49.7481 49.4865 49.5253 49.6754 49.3509C49.8692 49.1765 50.092 49.0894 50.3439 49.0894C50.5958 49.0894 50.8041 49.1669 50.9978 49.3267C51.1867 49.4817 51.2836 49.7142 51.2836 50.0146C51.2836 50.3149 51.1916 50.5329 51.0075 50.6976C50.8234 50.8623 50.6006 50.9446 50.3487 50.9446ZM51.2836 52.9016V58.3754C51.2836 58.7532 51.1916 59.039 51.0124 59.2376C50.8331 59.4314 50.6055 59.5282 50.3245 59.5282C50.0436 59.5282 49.8207 59.4265 49.6463 59.2279C49.472 59.0293 49.3848 58.7435 49.3848 58.3754V52.9597C49.3848 52.5867 49.472 52.3058 49.6463 52.112C49.8207 51.9231 50.0436 51.8262 50.3245 51.8262C50.6055 51.8262 50.8283 51.9231 51.0124 52.112C51.1916 52.3009 51.2836 52.5674 51.2836 52.9016Z" fill="white"/>
<path fill-rule="evenodd" clip-rule="evenodd" d="M39.4506 44.1049C35.401 44.1049 31.3513 44.1243 27.3066 44.0952C25.3399 44.0807 24.9718 43.4945 25.6645 41.6393C27.2145 37.4831 29.0262 36.2333 33.4924 36.2333C36.4957 36.2333 39.4942 36.1946 42.4975 36.243C44.2946 36.2721 44.406 35.5067 43.5825 34.2134C39.2374 27.3881 34.9069 20.5484 30.5133 13.7522C29.3895 12.0132 28.4449 12.1149 27.2436 13.9992C21.6778 22.733 16.1314 31.4862 10.5753 40.2297C8.16298 44.0274 7.75124 44.1388 2.02075 43.8869C-0.231724 43.7852 -0.493301 42.8648 0.703174 40.9756C6.71946 31.491 12.7551 22.0161 18.7859 12.5412C20.9222 9.18428 23.0341 5.81768 25.2043 2.48499C27.355 -0.823484 30.6151 -0.833172 32.7367 2.48499C40.1045 14.0089 47.4287 25.5571 54.7916 37.081C55.8185 38.6893 56.5306 40.2926 55.4891 42.1479C54.4864 43.9402 52.8007 44.134 50.9697 44.1146C47.1332 44.071 43.2919 44.1 39.4506 44.1" fill="white"/>
<path fill-rule="evenodd" clip-rule="evenodd" d="M17.042 44.0515C16.4704 44.0515 14.5086 44.0903 14.0242 44.0515C10.8029 43.8093 10.4832 43.1311 12.1301 40.5347C15.5936 35.0804 19.2412 29.7326 22.3704 24.0699C23.6444 21.769 24.8021 21.7593 26.3377 23.9052C28.6822 27.1846 28.7258 29.3983 26.5024 32.857C24.7682 35.5502 22.9517 38.1951 21.3241 40.9562C19.9726 43.2474 19.3913 44.0128 17.0371 44.0563" fill="white"/>
</svg>
