<svg width="26" height="40" viewBox="0 0 26 40" fill="none" xmlns="http://www.w3.org/2000/svg">
<path d="M26 0.882353V0H5.17837V0.882353V1.75245H3.46026V3.51716H1.73013V4.39951V5.26961H0.87708H0V6.15196V22.2304V40H0.792976H0.865065H20.9418V39.1054H0.865065V26.4093H0.87708V23.1373H1.73013V37.3652V38.2475H22.5397V37.3652H2.59519V23.1373H3.44824V35.6005H3.46026V36.4828H24.2699V35.6005H4.31331V23.1373H5.17837V33.8358V34.7181H6.04344H26V33.8358H6.04344V23.1373H20.9418V22.2549H0.87708V6.15196H1.73013V20.5025V21.3848H22.5397V20.5025H2.59519V6.15196H3.46026V19.6324H4.32532V19.6201H24.2699V18.7377H4.32532V6.15196H5.17837V16.9853V17.8676H6.04344H26V16.9853H6.04344V6.15196H20.9418V5.26961H2.59519V4.39951H22.5397V3.51716H4.32532V2.64706H24.2699V1.75245H6.04344V0.882353H26Z" fill="#002D74"/>
</svg>
