<svg width="203" height="44" viewBox="0 0 203 44" fill="none" xmlns="http://www.w3.org/2000/svg">
<path d="M43.3259 25.1621V27.3303H34.7959V15.0481H43.1961V17.2163H37.7171V19.9817H42.9104V22.124H37.7171V25.1621H43.3259Z" fill="#002D74"/>
<path d="M45.0264 15.0481H48.2592L52.2061 22.0591C52.4788 22.5784 52.7904 23.2016 52.9462 23.656H52.9851C52.9851 23.1756 52.9721 22.6693 52.9721 22.085V15.0611H55.6467V27.3432H52.5307L48.4539 20.2674C48.1294 19.6961 47.8957 19.2157 47.7269 18.7613H47.6879C47.6879 19.2677 47.7009 19.787 47.7009 20.3842V27.3303H45.0264V15.0481Z" fill="#002D74"/>
<path d="M65.1245 24.461H60.5933L59.6585 27.3303H56.7373L61.2035 15.0481H64.5402L69.0065 27.3303H66.0723L65.1375 24.461H65.1245ZM64.4494 22.4096L63.3198 18.982C63.151 18.4497 62.9952 17.8784 62.8654 17.2552H62.8265C62.7226 17.8784 62.5538 18.4497 62.372 18.982L61.2425 22.4096H64.4234H64.4494Z" fill="#002D74"/>
<path d="M80.0035 23.8767C80.0035 25.8112 78.6402 27.3303 75.8359 27.3303H70.0713V15.0481H75.6022C78.4065 15.0481 79.6789 16.4113 79.6789 18.216C79.6789 19.5014 78.8999 20.553 77.4588 20.9295C79.0557 21.1762 79.9775 22.2408 79.9775 23.8637L80.0035 23.8767ZM72.9925 17.1124V20.0986H74.8232C76.1345 20.0986 76.6408 19.4235 76.6408 18.5925C76.6408 17.7616 76.0825 17.0995 74.8232 17.0995H72.9925V17.1124ZM76.9524 23.63C76.9524 22.6823 76.3162 22.0331 75.0828 22.0331H72.9925V25.2659H75.0179C76.3552 25.2659 76.9524 24.5518 76.9524 23.617V23.63Z" fill="#002D74"/>
<path d="M81.4189 15.0481H84.3402V24.9543H89.3258V27.3303H81.4189V15.0481Z" fill="#002D74"/>
<path d="M99.1013 25.1621V27.3303H90.5713V15.0481H98.9715V17.2163H93.4925V19.9817H98.6858V22.124H93.4925V25.1621H99.1013Z" fill="#002D74"/>
<path d="M111.995 24.461H107.463L106.529 27.3303H103.607L108.074 15.0481H111.41L115.877 27.3303H112.942L112.008 24.461H111.995ZM111.319 22.4096L110.19 18.982C110.021 18.4497 109.865 17.8784 109.736 17.2552H109.697C109.593 17.8784 109.424 18.4497 109.242 18.982L108.113 22.4096H111.294H111.319Z" fill="#002D74"/>
<path d="M119.122 15.0481V22.916C119.122 24.3571 119.966 25.2529 121.407 25.2529C122.849 25.2529 123.693 24.3571 123.693 22.916V15.0481H126.614V23.0328C126.614 25.8372 124.679 27.6159 121.407 27.6159C118.136 27.6159 116.201 25.8372 116.201 23.0328V15.0481H119.122Z" fill="#002D74"/>
<path d="M137.468 17.3721H133.885V27.3303H130.976V17.3721H127.419V15.0481H137.468V17.3721Z" fill="#002D74"/>
<path d="M137 21.1892C137 17.2293 139.376 14.7495 143.05 14.7495C146.724 14.7495 149.1 17.2163 149.1 21.1892C149.1 25.1621 146.737 27.6289 143.05 27.6289C139.363 27.6289 137 25.1361 137 21.1892ZM146.101 21.1892C146.101 18.5926 144.972 17.0346 143.063 17.0346C141.155 17.0346 139.999 18.5926 139.999 21.1892C139.999 23.7859 141.142 25.3439 143.063 25.3439C144.985 25.3439 146.101 23.7859 146.101 21.1892Z" fill="#002D74"/>
<path d="M160.318 18.9041C160.318 21.345 158.604 22.864 155.839 22.864H153.385V27.3303H150.464V15.0481H155.917C158.578 15.0481 160.331 16.5671 160.331 18.9041H160.318ZM157.254 18.995C157.254 17.8395 156.514 17.1644 155.203 17.1644H153.385V20.8256H155.203C156.501 20.8256 157.254 20.1505 157.254 18.995Z" fill="#002D74"/>
<path d="M167.316 24.461H162.785L161.85 27.3303H158.929L163.395 15.0481H166.732L171.198 27.3303H168.264L167.329 24.461H167.316ZM166.641 22.4096L165.511 18.982C165.342 18.4497 165.187 17.8784 165.057 17.2552H165.018C164.914 17.8784 164.745 18.4497 164.563 18.982L163.434 22.4096H166.615H166.641Z" fill="#002D74"/>
<path d="M176.95 22.6303H175.184V27.3303H172.263V15.0481H177.664C180.78 15.0481 182.156 16.5671 182.156 18.8132C182.156 20.3582 181.338 21.6436 179.754 22.1889L182.468 27.3303H179.3L176.95 22.6303ZM175.184 20.6179H177.067C178.482 20.6179 179.105 19.9298 179.105 18.8132C179.105 17.6967 178.495 17.0995 177.067 17.0995H175.184V20.6049V20.6179Z" fill="#002D74"/>
<path d="M192.373 17.3721H188.79V27.3303H185.882V17.3721H182.324V15.0481H192.373V17.3721Z" fill="#002D74"/>
<path d="M191.751 24.7726L193.919 23.2535C194.555 24.5129 195.633 25.3568 197.255 25.3568C198.437 25.3568 199.359 24.9284 199.359 23.9546C199.359 23.0328 198.826 22.6953 197.58 22.4356L195.931 22.0851C193.789 21.6177 192.543 20.4621 192.543 18.3978C192.543 16.1517 194.373 14.7495 197.333 14.7495C199.515 14.7495 201.345 15.5415 202.215 17.1904L200.307 18.8003C199.683 17.6058 198.541 16.9177 197.139 16.9177C195.983 16.9177 195.23 17.3981 195.23 18.1771C195.23 18.9561 195.71 19.3716 197.009 19.6702L198.788 20.0467C200.969 20.5271 202.137 21.5657 202.137 23.682C202.137 26.019 200.333 27.6289 197.126 27.6289C194.477 27.6289 192.582 26.4994 191.725 24.7726H191.751Z" fill="#002D74"/>
<path d="M37.665 38.1584C35.7694 38.1584 34.2764 36.8211 34.2764 35.0164C34.2764 33.2118 35.7565 31.8615 37.665 31.8615C39.5735 31.8615 41.0406 33.1858 41.0406 35.0164C41.0406 36.8471 39.5735 38.1584 37.665 38.1584ZM37.665 36.6264C38.5998 36.6264 39.3009 36.0162 39.3009 35.0164C39.3009 34.0167 38.5998 33.3935 37.665 33.3935C36.7302 33.3935 36.0161 33.9908 36.0161 35.0164C36.0161 36.0421 36.7432 36.6264 37.665 36.6264ZM44.7409 41.8586V43.2738H36.1589V39.1192H37.9376V41.8586H44.7409ZM44.4293 40.002H42.6376V31.0825H44.4293V40.002Z" fill="#002D74"/>
<path d="M52.298 31.2644H53.9599V42.9364H52.298V37.0809H51.3243C51.1685 39.5088 50.1558 40.9629 48.6368 40.9629C46.9879 40.9629 45.9492 39.2621 45.9492 36.4447C45.9492 33.6274 46.9879 31.9395 48.6368 31.9395C50.1039 31.9395 51.1036 33.3158 51.3113 35.6398H52.298V31.2644ZM49.7273 36.4447C49.7273 34.5492 49.3379 33.6144 48.6497 33.6144C47.9616 33.6144 47.5721 34.5492 47.5721 36.4447C47.5721 38.3403 47.9746 39.2881 48.6497 39.2881C49.3249 39.2881 49.7273 38.3533 49.7273 36.4447ZM56.5176 31.0437V43.4687H54.8298V31.0437H56.5176Z" fill="#002D74"/>
<path d="M64.4632 36.3538C64.4632 39.0933 63.074 40.8071 61.1914 40.8071C59.3088 40.8071 57.9326 39.0933 57.9326 36.3538C57.9326 33.6143 59.3218 31.9265 61.1914 31.9265C63.061 31.9265 64.4632 33.6273 64.4632 36.3538ZM59.6464 36.3538C59.6464 38.1974 60.2826 39.1842 61.1914 39.1842C62.1002 39.1842 62.7494 38.1974 62.7494 36.3538C62.7494 34.5102 62.1132 33.5364 61.1914 33.5364C60.2696 33.5364 59.6464 34.5232 59.6464 36.3538ZM67.8778 31.0566V43.5206H66.0991V31.0566H67.8778Z" fill="#002D74"/>
<path d="M80.5489 36.1071V37.5093H69.3184V36.1071H80.5489ZM72.3824 42.0664H79.5102V43.3907H70.6167V40.1579H77.4329V39.5217H70.6037V38.2104H79.1856V41.3653H72.3824V42.0664ZM79.1337 35.432H70.7595V31.2773H72.5252V32.0953H77.368V31.2773H79.1337V35.432ZM77.368 33.3936H72.5252V34.1207H77.368V33.3936Z" fill="#002D74"/>
<path d="M92.3249 40.5994V42.0405H81.0684V40.5994H85.7943V38.4961C83.6131 38.2235 82.0551 36.9771 82.0551 35.1205C82.0551 33.0431 84.0415 31.6929 86.6771 31.6929C89.3127 31.6929 91.3122 33.0431 91.3122 35.1205C91.3122 36.9641 89.7671 38.2364 87.56 38.4961V40.5994H92.3119H92.3249ZM86.6901 37.1329C88.4039 37.1329 89.5724 36.3928 89.5724 35.1205C89.5724 33.8481 88.4039 33.108 86.6901 33.108C84.9763 33.108 83.8208 33.8481 83.8208 35.1205C83.8208 36.3928 84.9893 37.1329 86.6901 37.1329Z" fill="#002D74"/>
<path d="M104.061 40.677V42.1182H92.8047V40.677H97.5436V38.6127H94.129V31.9133H102.763V33.3285H95.9336V34.5489H102.477V35.9252H95.9336V37.2235H102.854V38.6257H99.3223V40.69H104.061V40.677Z" fill="#002D74"/>
<path d="M110.501 38.9894C110.982 38.9505 111.475 38.9245 111.929 38.8596L112.033 40.1579C109.514 40.5993 106.697 40.6513 104.568 40.6513L104.373 39.1971H105.762V33.6403H104.698V32.2122H111.553V33.6403H110.488V39.0024L110.501 38.9894ZM107.502 39.1452C107.917 39.1322 108.346 39.1192 108.787 39.1063V33.6273H107.502V39.1452ZM116.084 37.2107H114.279V43.4816H112.501V31.0566H114.279V35.7436H116.084V37.2107Z" fill="#002D74"/>
<path d="M127.548 40.6122V42.0533H116.292V40.6122H127.548ZM116.669 37.5611C119.486 37.1716 120.875 35.6525 121.005 34.1854H117.266V32.7703H121.031V31.2512H122.81V32.7703H126.575V34.1854H122.836C122.952 35.6525 124.342 37.1716 127.159 37.5611L126.51 39.0022C124.316 38.6776 122.745 37.6779 121.927 36.3407C121.109 37.6779 119.538 38.6776 117.344 39.0022L116.681 37.5611H116.669Z" fill="#002D74"/>
<path d="M28.0958 0.934795V0H5.59579V0.934795V1.85661H3.73918V3.7262H1.86959V4.66099V5.5828H0.947778H0V6.5176V23.5516V42.3774H0.856895H0.934795H22.6298V41.4296H0.934795V27.9789H0.947778V24.5124H1.86959V39.586V40.5208H24.3566V39.586H2.80438V24.5124H3.7262V37.7164H3.73918V38.6512H26.2262V37.7164H4.66099V24.5124H5.59579V35.8468V36.7816H6.53058H28.0958V35.8468H6.53058V24.5124H22.6298V23.5776H0.947778V6.5176H1.86959V21.721V22.6558H24.3566V21.721H2.80438V6.5176H3.73918V20.7992H4.67397V20.7862H26.2262V19.8514H4.67397V6.5176H5.59579V17.9948V18.9296H6.53058H28.0958V17.9948H6.53058V6.5176H22.6298V5.5828H2.80438V4.66099H24.3566V3.7262H4.67397V2.80438H26.2262V1.85661H6.53058V0.934795H28.0958Z" fill="#002D74"/>
</svg>
