<svg width="45" height="48" viewBox="0 0 45 48" fill="none" xmlns="http://www.w3.org/2000/svg">
<path d="M43.6059 33.5054L33.7869 29.0601C33.3675 28.8713 32.9013 28.8315 32.4586 28.9467C32.0159 29.062 31.6206 29.326 31.3322 29.6991L26.9838 35.3113C20.1594 31.9123 14.6673 26.1107 11.4496 18.9018L16.7624 14.3083C17.1163 14.0042 17.3668 13.5867 17.4759 13.1188C17.5851 12.6509 17.547 12.1582 17.3673 11.7152L13.1592 1.34293C12.962 0.86544 12.6133 0.475587 12.1732 0.240593C11.7331 0.0055984 11.2292 -0.0598079 10.7483 0.0556523L1.63065 2.27829C1.16703 2.39138 0.753383 2.66714 0.457227 3.06055C0.161071 3.45396 -0.0001068 3.94179 5.30944e-08 4.44443C5.30944e-08 28.1988 18.2265 47.4154 40.6786 47.4154C41.1546 47.4157 41.6166 47.2455 41.9892 46.9327C42.3618 46.6198 42.623 46.1827 42.7301 45.6928L44.8342 36.0614C44.9428 35.551 44.8795 35.0165 44.6554 34.55C44.4312 34.0835 44.0601 33.7141 43.6059 33.5054Z" fill="#C5C5C5"/>
</svg>
